<?xml version="1.0" encoding="utf-8"?>
<!-- Generator: Adobe Illustrator 16.0.0, SVG Export Plug-In . SVG Version: 6.00 Build 0)  -->
<!DOCTYPE svg PUBLIC "-//W3C//DTD SVG 1.1//EN" "http://www.w3.org/Graphics/SVG/1.1/DTD/svg11.dtd">
<svg version="1.1" id="Layer_1" xmlns="http://www.w3.org/2000/svg" xmlns:xlink="http://www.w3.org/1999/xlink" x="0px" y="0px"
	 width="2700px" height="2000px" viewBox="0 0 2700 2000" enable-background="new 0 0 2700 2000" xml:space="preserve">
<g>
	<rect y="0.001" display="none" fill="#FFFFFF" width="2700" height="2000"/>
	<g>
		<path fill="#F4A640" d="M1281.97,1460.416l-257.611,103.459l-318.888-794.03l217.755-87.451
			c22.012-8.84,47.023,1.837,55.863,23.85L1281.97,1460.416z"/>
		<g>
			
				<rect x="753.707" y="775.666" transform="matrix(0.9846 -0.1746 0.1746 0.9846 -181.4531 192.6014)" fill="#ADCFD8" width="500.947" height="704.334"/>
			
				<rect x="843.199" y="849.917" transform="matrix(0.9846 -0.1746 0.1746 0.9846 -134.1338 179.7972)" fill="#55769F" width="223.704" height="5.022"/>
			
				<rect x="793.982" y="837.378" transform="matrix(0.9846 -0.1746 0.1746 0.9846 -131.9772 179.2134)" fill="#55769F" width="317.692" height="5.022"/>
			
				<rect x="771.539" y="901.841" transform="matrix(0.9846 -0.1746 0.1746 0.9846 -143.057 182.2023)" fill="#55769F" width="385.434" height="5.023"/>
			
				<rect x="775.756" y="925.626" transform="matrix(0.9846 -0.1746 0.1746 0.9846 -147.1434 183.3026)" fill="#55769F" width="385.433" height="5.022"/>
			
				<rect x="784.188" y="973.194" transform="matrix(0.9846 -0.1746 0.1746 0.9846 -155.3169 185.5043)" fill="#55769F" width="385.434" height="5.022"/>
			
				<rect x="788.405" y="996.979" transform="matrix(0.9846 -0.1746 0.1746 0.9846 -159.403 186.6041)" fill="#55769F" width="385.434" height="5.021"/>
			
				<rect x="792.622" y="1020.763" transform="matrix(0.9846 -0.1746 0.1746 0.9846 -163.4899 187.7052)" fill="#55769F" width="385.434" height="5.021"/>
			
				<rect x="811.166" y="1125.375" transform="matrix(0.9846 -0.1746 0.1746 0.9846 -181.4656 192.5483)" fill="#55769F" width="385.434" height="5.022"/>
			
				<rect x="815.539" y="1150.037" transform="matrix(0.9846 -0.1746 0.1746 0.9846 -185.7058 193.6932)" fill="#55769F" width="385.434" height="5.022"/>
			
				<rect x="819.911" y="1174.701" transform="matrix(0.9846 -0.1746 0.1746 0.9846 -189.939 194.8292)" fill="#55769F" width="385.434" height="5.022"/>
			
				<rect x="824.283" y="1199.362" transform="matrix(0.9846 -0.1746 0.1746 0.9846 -194.1821 195.9774)" fill="#55769F" width="385.433" height="5.023"/>
			
				<rect x="828.656" y="1224.026" transform="matrix(0.9846 -0.1746 0.1746 0.9846 -198.4172 197.1157)" fill="#55769F" width="385.434" height="5.023"/>
			
				<rect x="833.027" y="1248.688" transform="matrix(0.9846 -0.1746 0.1746 0.9846 -202.6575 198.2604)" fill="#55769F" width="385.435" height="5.023"/>
			
				<rect x="837.4" y="1273.352" transform="matrix(0.9846 -0.1746 0.1746 0.9846 -206.8931 199.3994)" fill="#55769F" width="385.434" height="5.022"/>
		</g>
		<g>
			
				<rect x="715.179" y="772.184" transform="matrix(0.9671 -0.2545 0.2545 0.9671 -254.3564 282.7882)" fill="#DAEEF7" width="500.947" height="704.334"/>
			
				<rect x="782.31" y="851.376" transform="matrix(0.9671 -0.2545 0.2545 0.9671 -187.8773 255.6899)" fill="#55769F" width="223.704" height="5.022"/>
			
				<rect x="732.075" y="839.061" transform="matrix(0.9671 -0.2545 0.2545 0.9671 -184.8486 254.4576)" fill="#55769F" width="317.693" height="5.022"/>
			
				<rect x="714.866" y="902.374" transform="matrix(0.9671 -0.2545 0.2545 0.9671 -200.4138 260.7837)" fill="#55769F" width="385.434" height="5.022"/>
			
				<rect x="721.014" y="925.733" transform="matrix(0.9671 -0.2545 0.2545 0.9671 -206.1556 263.1158)" fill="#55769F" width="385.434" height="5.023"/>
			
				<rect x="733.309" y="972.454" transform="matrix(0.9671 -0.2545 0.2545 0.9671 -217.6404 267.782)" fill="#55769F" width="385.434" height="5.021"/>
			
				<rect x="739.457" y="995.813" transform="matrix(0.9671 -0.2545 0.2545 0.9671 -223.385 270.119)" fill="#55769F" width="385.434" height="5.022"/>
			
				<rect x="745.604" y="1019.172" transform="matrix(0.9671 -0.2545 0.2545 0.9671 -229.1271 272.4517)" fill="#55769F" width="385.433" height="5.022"/>
			
				<rect x="772.644" y="1121.915" transform="matrix(0.9671 -0.2545 0.2545 0.9671 -254.3905 282.7238)" fill="#55769F" width="385.434" height="5.023"/>
			
				<rect x="779.019" y="1146.139" transform="matrix(0.9671 -0.2545 0.2545 0.9671 -260.3412 285.1376)" fill="#55769F" width="385.434" height="5.023"/>
			
				<rect x="785.393" y="1170.362" transform="matrix(0.9671 -0.2545 0.2545 0.9671 -266.2959 287.5573)" fill="#55769F" width="385.435" height="5.023"/>
			
				<rect x="791.768" y="1194.584" transform="matrix(0.9671 -0.2545 0.2545 0.9671 -272.2513 289.9781)" fill="#55769F" width="385.434" height="5.023"/>
			
				<rect x="798.143" y="1218.807" transform="matrix(0.9671 -0.2545 0.2545 0.9671 -278.2063 292.3981)" fill="#55769F" width="385.434" height="5.023"/>
			
				<rect x="804.518" y="1243.03" transform="matrix(0.9671 -0.2545 0.2545 0.9671 -284.1636 294.8213)" fill="#55769F" width="385.434" height="5.023"/>
			
				<rect x="810.893" y="1267.252" transform="matrix(0.9671 -0.2545 0.2545 0.9671 -290.1155 297.2374)" fill="#55769F" width="385.435" height="5.023"/>
		</g>
		<path fill="#FEB546" d="M1184.224,1499.673l-518.632,208.286l-302.49-753.198l435.811-268.843
			c24.493-15.108,56.69-4.508,67.415,22.197L1184.224,1499.673z"/>
	</g>
	<g>
		<path fill="#FF5B7E" d="M498.227,1586.071l-73.986-1.341c-25.686-46.554-44.533-87.032-44.533-87.032
			c83.562-19.261,154.083-11.354,212.838,11.232l32.377,78.65l6.931-60.56c145.612,78.575,205.607,244.918,205.607,244.918
			s-257.34-27.411-311.895-52.781c-21.065-9.797-47.608-45.046-72.258-84.63C473.031,1615.752,498.227,1586.071,498.227,1586.071z"
			/>
		<path fill="#E03268" d="M379.708,1497.698c0,0,330.392,139.036,457.752,274.241c0,0-257.34-27.411-311.895-52.781
			c-21.065-9.797-47.608-45.046-72.258-84.63c19.723-18.776,44.919-48.457,44.919-48.457l-73.986-1.341
			C398.556,1538.177,379.708,1497.698,379.708,1497.698z"/>
		<path fill="#FF5B7E" d="M390.25,1719.917c44.488-27.091,89.368-41.587,132.803-47.369c12.729,15.829,28.357,34.442,28.357,34.442
			l1.649-37.105c166.647-7.589,304.735,104.068,304.735,104.068c-96.521,60.835-178.854,77.609-246.298,72.174
			c-3.995-12.983-9.652-32.35-9.652-32.35l-11.914,29.811c-32.331-5.052-60.861-15.137-85.499-27.465
			c6.311-15.463,12.957-33.14,12.957-33.14l-35.918,20.401C421.283,1766.587,390.25,1719.917,390.25,1719.917z"/>
		<path fill="#E03268" d="M611.497,1846.127c-3.995-12.983-9.652-32.35-9.652-32.35l-11.914,29.811
			c-32.331-5.052-60.861-15.137-85.499-27.465c6.311-15.463,12.957-33.14,12.957-33.14l-35.918,20.401
			c-60.188-36.798-91.221-83.468-91.221-83.468c194.168-22.431,467.545,54.036,467.545,54.036
			C761.274,1834.788,678.94,1851.563,611.497,1846.127z"/>
	</g>
	<path fill="#02CCC0" d="M1362.628,718.863l59.642-43.801c-5.898-52.841-13.871-96.775-13.871-96.775
		c-79.353,32.505-132.375,79.669-167.318,132.025l18.959,82.915l-40.615-45.453c-73.551,148.214-26.527,318.678-26.527,318.678
		s194.32-170.924,224.224-223.132c11.548-20.158,12.875-64.263,10.156-110.816C1400.334,728.556,1362.628,718.863,1362.628,718.863z
		"/>
	<path fill="#06BFAD" d="M1408.398,578.287c0,0-189.541,304.242-215.501,488.165c0,0,194.32-170.924,224.224-223.132
		c11.548-20.158,12.875-64.263,10.156-110.816c-26.943-3.949-64.649-13.641-64.649-13.641l59.642-43.801
		C1416.371,622.221,1408.398,578.287,1408.398,578.287z"/>
	<path fill="#02CCC0" d="M1528.058,765.834c-51.966,3.558-96.981,17.626-135.787,37.975c-1.259,20.273-3.276,44.494-3.276,44.494
		l-22.765-29.349c-140.464,89.995-188.775,260.879-188.775,260.879c113.934-6.034,190.85-39.861,242.784-83.229
		c-4.23-12.907-10.79-31.987-10.79-31.987l26.937,17.465c23.485-22.787,40.961-47.49,53.965-71.778
		c-14.08-8.984-29.709-19.583-29.709-19.583l41.106-4.072C1529.655,821.858,1528.058,765.834,1528.058,765.834z"/>
	<path fill="#06BFAD" d="M1420.238,996.604c-4.23-12.907-10.79-31.987-10.79-31.987l26.937,17.465
		c23.485-22.787,40.961-47.49,53.965-71.778c-14.08-8.984-29.709-19.583-29.709-19.583l41.106-4.072
		c27.908-64.791,26.311-120.815,26.311-120.815c-171.504,93.761-350.604,313.999-350.604,313.999
		C1291.388,1073.799,1368.304,1039.972,1420.238,996.604z"/>
	<g>
		<path fill="#E03268" d="M2004.825,982.57h35.466c-5.802-3.968-13.06-6.342-20.957-6.342h-888.486
			c-46.484,0-84.168,33.405-84.168,74.61v47.392c0,41.204,37.684,74.61,84.168,74.61l878.55-0.266L2004.825,982.57z"/>
		<path fill="#FEB546" d="M1121.209,1098.229v-47.392c0-41.205,37.683-74.61,84.168-74.61h-19.08
			c-46.485,0-84.167,33.405-84.167,74.61v47.392c0,41.204,37.683,74.61,84.167,74.61l18.828-0.006
			C1158.757,1172.712,1121.209,1139.36,1121.209,1098.229z"/>
		<path fill="#FEB546" d="M1329.294,1098.229v-47.392c0-41.205,37.683-74.61,84.169-74.61h-19.08
			c-46.485,0-84.169,33.405-84.169,74.61v47.392c0,41.204,37.684,74.61,84.169,74.61l18.826-0.006
			C1366.843,1172.712,1329.294,1139.36,1329.294,1098.229z"/>
		<path fill="#FF5B7E" d="M1500.413,976.404c-44.455,0-80.491,31.944-80.491,71.352v53.557c0,39.405,36.036,71.351,80.491,71.351
			h553.105v-11.979h-2.285l-140.611-11.805l-28.421-98.833c0,0,54.854-54.615,58.431-56.024s110.602-5.682,110.602-5.682
			l2.285-0.021v-11.914H1500.413z"/>
		<path fill="#DAEEF7" d="M2017.646,1074.181c0-57.785,33.687-85.797,33.687-85.797h-539.591c-40.831,0-73.932,29.343-73.932,65.537
			v41.226c0,36.194,33.101,65.537,73.932,65.537h539.591C2051.332,1160.684,2017.646,1146.941,2017.646,1074.181z"/>
		<path fill="#DAEEF7" d="M1437.81,1053.921v41.226c0,5.419,0.756,10.681,2.154,15.717c18.199-39.47,53.078-77.486,119.476-89.711
			c155.021-28.54,491.893-32.769,491.893-32.769h-539.591C1470.91,988.384,1437.81,1017.727,1437.81,1053.921z"/>
	</g>
	<g>
		<path fill="#284C7A" d="M1990.197,1375.552h40.141c-6.568-4.968-14.783-7.939-23.72-7.939H1001.022
			c-52.612,0-95.262,41.813-95.262,93.39v59.32c0,51.578,42.649,93.39,95.262,93.39l994.348-0.331L1990.197,1375.552z"/>
		<path fill="#55769F" d="M1419.298,1367.833c-50.313,0-91.1,39.985-91.1,89.31v67.038c0,49.324,40.787,89.312,91.1,89.312h626.011
			v-14.996h-2.588l-159.146-14.775l-32.166-123.711c0,0,62.083-68.36,66.133-70.125c4.048-1.764,125.179-7.111,125.179-7.111
			l2.588-0.027v-14.913H1419.298z"/>
		<path fill="#DAEEF7" d="M2004.706,1490.221c0-72.329,38.126-107.393,38.126-107.393H1432.12
			c-46.214,0-83.677,36.728-83.677,82.033v51.603c0,45.304,37.463,82.032,83.677,82.032h610.712
			C2042.832,1598.496,2004.706,1581.295,2004.706,1490.221z"/>
		<path fill="#DAEEF7" d="M1348.443,1464.861v51.603c0,6.782,0.856,13.368,2.439,19.674
			c20.597-49.406,60.075-96.991,135.223-112.293c175.453-35.724,556.727-41.017,556.727-41.017H1432.12
			C1385.906,1382.828,1348.443,1419.556,1348.443,1464.861z"/>
	</g>
	<g>
		<path fill="#02CCC0" d="M872.617,1178.638h-40.156c6.569-3.941,14.789-6.3,23.729-6.3h1005.988c52.633,0,95.3,33.178,95.3,74.103
			v47.069c0,40.926-42.667,74.103-95.3,74.103l-994.737-0.262L872.617,1178.638z"/>
		<path fill="#06BFAD" d="M1443.738,1172.513c50.334,0,91.138,31.728,91.138,70.866v53.192c0,39.139-40.804,70.866-91.138,70.866
			H817.485v-11.898h2.588l159.207-11.725l32.179-98.162c0,0-62.107-54.242-66.158-55.641c-4.05-1.4-125.228-5.644-125.228-5.644
			l-2.588-0.021v-11.834H1443.738z"/>
		<path fill="#DAEEF7" d="M858.103,1269.625c0-57.393-38.143-85.214-38.143-85.214h610.952c46.232,0,83.711,29.143,83.711,65.093
			v40.944c0,35.948-37.479,65.091-83.711,65.091H819.96C819.96,1355.539,858.103,1341.891,858.103,1269.625z"/>
		<path fill="#DAEEF7" d="M1514.623,1249.504v40.944c0,5.382-0.856,10.607-2.441,15.611
			c-20.605-39.204-60.099-76.962-135.275-89.103c-175.523-28.346-556.946-32.546-556.946-32.546h610.952
			C1477.145,1184.411,1514.623,1213.554,1514.623,1249.504z"/>
		<path opacity="0.5" fill="#55769F" d="M1773.186,1293.51v-47.069c0-40.925-42.666-74.103-95.3-74.103h95.528
			c52.633,0,95.3,33.178,95.3,74.103v47.069c0,40.926-42.667,74.104-95.3,74.104l-94.263-0.026
			C1731.197,1367.059,1773.186,1334.105,1773.186,1293.51z"/>
	</g>
	<path fill="#FEB546" d="M796.668,1621.252h-43.289c7.083-4.403,15.943-7.039,25.581-7.039h1084.478
		c56.738,0,102.735,37.069,102.735,82.795v52.591c0,45.726-45.997,82.794-102.735,82.794l-1072.348-0.294L796.668,1621.252z"/>
	<path fill="#F4A640" d="M1412.351,1614.408c54.26,0,98.247,35.449,98.247,79.179v59.433c0,43.729-43.987,79.178-98.247,79.178
		H737.235v-13.294h2.79l171.629-13.1l34.689-109.675c0,0-66.953-60.606-71.32-62.17c-4.366-1.563-134.998-6.305-134.998-6.305
		l-2.79-0.024v-13.222H1412.351z"/>
	<path fill="#DAEEF7" d="M781.021,1722.912c0-64.124-41.117-95.209-41.117-95.209h658.618c49.839,0,90.242,32.561,90.242,72.726
		v45.748c0,40.166-40.403,72.727-90.242,72.727H739.904C739.904,1818.903,781.021,1803.654,781.021,1722.912z"/>
	<path fill="#DAEEF7" d="M1488.765,1700.429v45.748c0,6.014-0.924,11.853-2.632,17.442c-22.213-43.8-64.787-85.988-145.831-99.553
		c-189.216-31.671-600.397-36.363-600.397-36.363h658.618C1448.361,1627.703,1488.765,1660.264,1488.765,1700.429z"/>
	<path fill="#C4DFE8" d="M2304.994,1854.963H475.988c-5.404,0-9.786-4.382-9.786-9.786v-4.503c0-5.404,4.382-9.786,9.786-9.786
		h1829.006c5.405,0,9.787,4.382,9.787,9.786v4.503C2314.781,1850.581,2310.399,1854.963,2304.994,1854.963z"/>
	<polygon fill="#F4A640" points="454.991,1037.919 808.091,835.957 855.815,930.493 494.514,1121.639 	"/>
	<path fill="#02CCC0" d="M1120.393,462.639c0,0-2.785,27.463-24.457,29.363c21.672,1.899,24.457,29.361,24.457,29.361
		s2.785-27.462,24.457-29.361C1123.178,490.102,1120.393,462.639,1120.393,462.639z"/>
	<path fill="#FEB546" d="M745.968,251.674c0,0-3.709,36.579-32.576,39.11c28.866,2.53,32.576,39.109,32.576,39.109
		s3.71-36.579,32.575-39.109C749.678,288.253,745.968,251.674,745.968,251.674z"/>
	<path fill="#FF5B7E" d="M594.739,578.84c0,0-2.491,24.563-21.875,26.262c19.383,1.699,21.875,26.262,21.875,26.262
		s2.491-24.563,21.874-26.262C597.23,603.402,594.739,578.84,594.739,578.84z"/>
	<path fill="#FF5B7E" d="M2312.201,1164.884c0,0-3.709,36.579-32.574,39.109c28.865,2.531,32.574,39.109,32.574,39.109
		s3.711-36.578,32.575-39.109C2315.912,1201.463,2312.201,1164.884,2312.201,1164.884z"/>
	<path fill="#02CCC0" d="M265.375,842.806c0,0-3.709,36.58-32.575,39.11c28.866,2.53,32.575,39.109,32.575,39.109
		s3.71-36.579,32.576-39.109C269.085,879.386,265.375,842.806,265.375,842.806z"/>
	<path fill="#02CCC0" d="M2389.307,803.697c0,0-3.711,36.58-32.574,39.109c28.863,2.531,32.574,39.11,32.574,39.11
		s3.71-36.579,32.576-39.11C2393.017,840.276,2389.307,803.697,2389.307,803.697z"/>
	<path fill="#FF5B7E" d="M1488.765,229.174c0,0-3.711,36.579-32.577,39.11c28.866,2.53,32.577,39.109,32.577,39.109
		s3.709-36.579,32.575-39.109C1492.474,265.753,1488.765,229.174,1488.765,229.174z"/>
	<path fill="#FEB546" d="M2107.163,534.658c0,0-2.017,23.097-17.705,24.694c15.688,1.598,17.705,24.694,17.705,24.694
		s2.017-23.097,17.704-24.694C2109.18,557.755,2107.163,534.658,2107.163,534.658z"/>
	<g>
		<path fill="#FFC0BB" d="M840.513,1660.309l-48.751,2.47l-6.167,144.615l-24.936,12.009l1.203,5.27l9.266,2.188
			c0,0,29.987-0.515,30.888-0.515s7.078-6.821,7.078-6.821l-0.929-1.188l4.981-3.384L840.513,1660.309z"/>
		<path fill="#FFC0BB" d="M972.563,1819.402c0,0-24.347-12.234-24.95-12.009l5.516-147.261l-60.433,0.176l27.367,154.643
			l2.999,2.037c-0.748,2.568-1.345,4.795-1.485,5.495c-0.386,1.931,10.296,2.06,14.028,2.702c3.732,0.645,14.542,1.803,21.493,3.732
			c6.949,1.931,15.701-3.732,15.701-3.732L972.563,1819.402z"/>
		<path fill="#FF5500" d="M974.188,1262.813c-7.037-18.299-13.881-11.051-26.583-33.178c-2.02-3.518-3.475-8.07-4.494-12.27
			c-3.045-12.546-9.639-24.01-19.409-32.447c-29.778-25.718-63.47-14.302-63.47-14.302s8.74,49.709,10.413,59.787
			c-7.444,10.126-14.947,20.466-14.947,20.466s-15.673,81.714,8.922,88.604c24.597,6.891,29.072-4.165,41.084-9.925
			c12.012-5.761,23.736,9.964,41.682-0.978c13.709-8.358,6.747-29.199,13.996-33.11
			C968.633,1291.549,981.784,1282.562,974.188,1262.813z"/>
		<path fill="#FF5500" d="M847.479,1211.843c-0.436-0.192-11.712-6.55-22.271-12.515l65.571-72.994c0,0-19.873-3.853-21.081-4.003
			c-1.208-0.149-29.701,8.72-29.701,8.72l-29.38,7.957c-22.418,81.812-50.337,96.624-50.349,96.632
			c-3.37,2.239-6.561,5.228-9.784,10.442c-11.125,17.999,0.131,29.268,6.53,34.456c6.399,5.188-4.307,24.375,7.614,35.132
			c15.606,14.08,30.042,0.802,40.777,8.689s13.083,19.58,38.531,17.371c25.447-2.209,25.198-85.412,25.198-85.412
			S848.305,1212.207,847.479,1211.843z"/>
		<path fill="#FF5B7E" d="M958.793,1360.982c0,0,21.639,103.309,15.357,114.477c-6.283,11.169-88.651,14.659-88.651,14.659
			l-3.49-132.627l31.412-47.466L958.793,1360.982z"/>
		<path fill="#07085B" d="M932.671,1480.572l-15.392-42.17c0,0-50.658-18.451-53.876-18.677
			c-3.218-0.225-46.104,18.677-46.104,18.677s-13.11,26.536-15.67,31.301c-1.419,2.641,1.854,18.882,5.055,32.839l-18.169,0.854
			l-12.073,266.626c0,0,26.16,14.086,54.331,2.013l23.142-232.887l20.123-3.019l30.184,230.874c0,0,24.147,18.11,58.356,3.019
			l-22.671-256.937C938.927,1501.979,936.494,1491.047,932.671,1480.572z"/>
		<path fill="#FFC0BB" d="M834.146,1278.664c0,0,22.475-4.711,64.288-1.745c41.813,2.967-19.341,26.525-19.341,26.525
			s-21.462-0.698-22.385-0.872C855.785,1302.397,834.146,1278.664,834.146,1278.664z"/>
		<rect x="850.202" y="1255.047" fill="#FFC0BB" width="37.121" height="65.15"/>
		<path fill="#F99893" d="M887.261,1266.18v-22.219h-37.06v18.902C858.18,1267.15,869.993,1269.618,887.261,1266.18z"/>
		<path fill="#FFC0BB" d="M939.26,1182.518c-3.549-1.751-7.669-1.438-11.399,0.451c1.281-33.566-26.094-61.801-60.572-60.607
			c-34.479-1.193-61.853,27.041-60.572,60.607c-3.73-1.89-7.849-2.202-11.398-0.451c-6.81,3.359-8.926,12.982-4.728,21.495
			s13.124,12.69,19.933,9.331c0.945-0.467,1.791-1.064,2.551-1.752c3.902,27.75,27.052,48.553,54.214,48.167
			c27.162,0.386,50.312-20.417,54.214-48.167c0.76,0.688,1.605,1.285,2.551,1.752c6.81,3.359,15.734-0.818,19.933-9.331
			C948.187,1195.5,946.07,1185.877,939.26,1182.518z"/>
		<circle fill="#333333" cx="846.892" cy="1195.173" r="5.1"/>
		<circle fill="#333333" cx="890.778" cy="1195.646" r="5.099"/>
		<path fill="#FF5500" d="M857.577,1184.459c-2.551-0.886-4.977-1.58-7.398-2.007c-2.415-0.431-4.799-0.542-7.128-0.292
			c-2.316,0.276-4.647,0.754-6.879,1.756l-0.865,0.322c-0.288,0.113-0.547,0.283-0.833,0.409l-1.705,0.827
			c-1.145,0.574-2.208,1.303-3.477,1.87c0.682-1.149,1.458-2.28,2.356-3.311c0.998-0.909,1.917-1.996,3.134-2.688
			c2.265-1.647,5.077-2.569,7.903-2.883c2.844-0.301,5.741,0.145,8.315,1.195C853.558,1180.736,855.908,1182.297,857.577,1184.459z"
			/>
		<path fill="#FF5500" d="M878.125,1184.381c1.653-2.174,3.991-3.751,6.54-4.85c2.566-1.07,5.46-1.537,8.306-1.258
			c2.828,0.293,5.648,1.193,7.925,2.823c1.222,0.684,2.15,1.763,3.154,2.665c0.906,1.023,1.691,2.147,2.382,3.293
			c-1.273-0.559-2.342-1.279-3.491-1.845l-1.711-0.813c-0.287-0.124-0.547-0.293-0.836-0.403l-0.867-0.315
			c-2.239-0.986-4.574-1.445-6.893-1.705c-2.331-0.232-4.715-0.104-7.126,0.346C883.09,1182.764,880.67,1183.477,878.125,1184.381z"
			/>
		<path fill="#F99893" d="M869.809,1187.919c-0.251,2.676-0.065,5.358,0.437,8.014c0.254,1.334,0.612,2.648,1.126,3.958
			c0.539,1.297,1.195,2.608,2.381,3.739c1.357,1.047,1.946,1.361,2.333,2.309c0.399,0.833,0.222,1.89-0.206,2.898
			c-0.954,2.058-3.137,3.601-5.531,4.735c2.633-0.125,5.538-1.176,7.261-3.752c0.843-1.248,1.299-3.012,0.755-4.677
			c-0.558-1.72-1.547-2.325-2.62-3.179c-0.952-0.756-1.562-1.826-2.17-3.041c-0.569-1.09-0.957-2.308-1.416-3.503
			C871.33,1192.988,870.604,1190.475,869.809,1187.919z"/>
		<path fill="#F99893" d="M853.095,1219.886c1.405,0.972,2.863,1.851,4.384,2.601c1.504,0.778,3.053,1.46,4.644,2.01
			c3.176,1.102,6.493,1.783,9.828,1.789c3.335,0.021,6.646-0.668,9.756-1.915c3.097-1.292,5.967-3.141,8.63-5.281
			c-1.176,1.239-2.451,2.396-3.827,3.437c-1.374,1.045-2.884,1.899-4.434,2.683c-1.574,0.735-3.227,1.316-4.931,1.702
			c-1.708,0.365-3.453,0.553-5.199,0.564c-3.496-0.034-6.961-0.787-10.151-2.127C858.61,1224.01,855.611,1222.215,853.095,1219.886z
			"/>
		<path fill="#02CCC0" d="M940.943,1291.688c-20.114-19.522-47.919-15.381-47.919-15.381c-3.108,3.107-6.224,5.455-9.303,7.212
			c-4.408,2.242-9.94,4.178-16.104,4.342c-0.108-0.001-0.219,0.006-0.327,0.004c-0.108,0.002-0.219-0.005-0.327-0.004
			c-6.164-0.164-11.696-2.1-16.104-4.342c-3.079-1.757-6.195-4.104-9.302-7.212c0,0-27.806-4.142-47.919,15.381
			c-20.114,19.522-40.229,62.586-40.229,62.586s25.438,23.194,49.693,26.153c0,0,11.833,54.426,14.198,57.976
			c0,0,12.209,5.733,29.959,8.732c6.46,1.227,12.809,1.736,18.899,1.766c0.376,0.006,0.754,0.005,1.131,0.008
			c0.378-0.003,0.756-0.002,1.131-0.008c6.091-0.029,12.439-0.539,18.899-1.766c17.751-2.999,29.959-8.732,29.959-8.732
			c2.367-3.55,14.199-57.976,14.199-57.976c24.255-2.959,49.693-26.153,49.693-26.153S961.057,1311.21,940.943,1291.688z"/>
		<g>
			<path fill="#E03268" d="M869.457,1423.721c0,0,7.472-1.24,11.593,4.247l-0.288,14.133l-9.134,4.255
				c0,0-11.307-9.627-10.457-9.873C862.022,1436.236,869.457,1423.721,869.457,1423.721z"/>
			<polygon fill="#E03268" points="892.708,1516.034 772.413,1550.836 760.755,1462.77 881.05,1427.968 			"/>
			<polygon fill="#DAEEF7" points="762.479,1536.666 773.044,1545.586 888.179,1512.585 877.834,1429.59 869.708,1426.183 			"/>
			<polygon fill="#DAEEF7" points="888.179,1512.585 879.97,1505.439 864.947,1488.941 865.86,1443.533 869.708,1426.183 
				877.871,1429.451 			"/>
			<polygon fill="#FF5B7E" points="879.97,1505.439 759.674,1540.24 749.161,1458.522 869.457,1423.721 			"/>
		</g>
		<path fill="#DAEEF7" d="M820.935,1333.189c-2.79,3.396-5.336,6.933-7.674,10.584c-2.323,3.659-4.411,7.454-6.105,11.408
			c-1.708,3.945-3.006,8.062-3.742,12.293c-0.739,4.238-0.818,8.578-0.313,12.952c-1.352-4.19-1.752-8.728-1.284-13.167
			c0.433-4.455,1.706-8.794,3.442-12.895c1.792-4.08,4.029-7.95,6.677-11.5C814.574,1339.314,817.531,1335.989,820.935,1333.189z"/>
		<path fill="#FFC0BB" d="M795.977,1481.729c-21.181-35.858-11.378-79.488-3.005-103.608c-16.626-5.356-32.034-17.46-37.476-22.039
			c-33.812,76.333,23.448,141.649,23.448,141.649l0.112-0.105c1.091,2.462,1.887,4.659,1.887,4.659
			c13.5,24.402,14.089,24.012,15.058,23.667c0.97-0.346-1.702-11.95-0.508-11.92c1.193,0.031,9.714,14.014,10.339,12.7
			c0.624-1.314-5.671-15.179-4.754-15.414s8.942,13.378,10.709,12.204c1.766-1.174-7.527-15.792-5.745-16.152
			c1.782-0.361,10.924,14.855,12.362,13.525c1.208-1.117-8.601-18.388-11.754-23.855c-0.407-0.705,0.142-1.578,0.955-1.531
			c12.525,0.728,13.538,0.051,13.303-1.341C820.741,1493.18,805.698,1486.166,795.977,1481.729z"/>
		<path fill="#E03268" d="M937.681,1280.129c-25.957,93.443,5.377,121.014,5.506,121.732l-4.691,21.739
			c0,0-63.937-41.573-23.411-152.34c1.139-3.113,4.534-4.744,7.541-3.35l12.132,5.622
			C937.252,1274.689,938.417,1277.48,937.681,1280.129z"/>
		<path fill="#FFC0BB" d="M994.361,1508.316c0,0-0.824-2.073-1.6-4.518c0.001-0.009,0.004-0.022,0.006-0.031h-0.011l-1.225-9.056
			c-0.761-20.54-4.168-93.376-15.386-136.235c-8.536,6.776-26.672,19.588-44.274,21.892c11.032,23.068,34.13,76.238,38.135,124.577
			c-4.069,9.217-9.554,21.973-9.083,22.729c0.708,1.134,1.851,0.978,10.275-7.408c0.547-0.545,1.484-0.271,1.639,0.485
			c1.201,5.858,5.097,24.267,6.656,24.301c1.855,0.04-1.225-16.495,0.265-17.358s4.087,15.34,6.077,15.063
			s-0.874-14.973-0.076-15.383c0.798-0.409,5.047,13.377,6.315,13.916c1.269,0.54-1.476-14.729-0.649-15.5
			c0.827-0.772,6.225,9.135,7.129,8.771C999.459,1534.195,1000.123,1534.103,994.361,1508.316z"/>
		<path fill="#FF5500" d="M796.041,1182.159c0,0-3.756-69.471,73.656-74.062c0,0-2.408,68.247-62.98,74.871l-4.67-9.072
			L796.041,1182.159z"/>
		<path fill="#FF5500" d="M869.697,1108.098c0,0,62.8-3.519,66.127,73.373c0,0-4.564-0.331-7.963,1.498
			c0,0-49.736-12.439-62.084-60.639L869.697,1108.098z"/>
		<path fill="#07085B" d="M781.804,1824.68c-12.621,1.266-18.579-1.479-21.146-5.277l-8.551,5.582
			c-3.39,2.16-1.859,7.408,2.161,7.408h55.551c1.959,0,3.548-1.588,3.548-3.547v-15.009
			C809.795,1817.511,801.38,1822.718,781.804,1824.68z"/>
		<path fill="#07085B" d="M951.417,1824.68c12.622,1.266,18.579-1.479,21.146-5.277l8.551,5.582c3.39,2.16,1.86,7.408-2.161,7.408
			h-55.551c-1.959,0-3.548-1.588-3.548-3.547v-15.009C923.426,1817.511,931.841,1822.718,951.417,1824.68z"/>
	</g>
	<g>
		<g>
			<path fill="#DAEEF7" d="M2113.58,1327.368l64.189,5.151l-20.717,51.927l-32.402-2.6l-13.492,43.284
				c-3.288-1.5-5.709-2.641-6.195-2.965c-0.981-0.654-4.564-22.135-7.711-42.416L2113.58,1327.368z"/>
			<path fill="#E03268" d="M2150.212,1804.874v22.63c0,1.869,1.511,3.384,3.374,3.384h52.828c3.823,0,5.279-5.007,2.056-7.067
				l-29.638-18.946C2178.832,1804.874,2167.205,1813.396,2150.212,1804.874z"/>
			<path fill="#FFC0BB" d="M2046.506,845.734c-0.771,0.303-1.578-0.368-1.406-1.18c1.323-6.283,5.36-26.082,3.838-26.783
				c-1.81-0.832-5.85,16.771-7.687,16.984c-1.837,0.214,2.536-16.857,0.458-17.435s-5.544,15.121-6.506,15.183
				c-0.961,0.062,0.752-15.334-0.267-16.408c-1.019-1.073-4.847,15.14-5.991,15.546s-2.224-11.662-3.27-11.688
				c-1.047-0.027-1.739-0.221-7.095,27.643c0,0-0.315,10.212-2.124,12.607l4.021,8.205l12.464,0.414c0,0,27.076-24.5,26.854-25.989
				C2059.582,841.413,2058.39,841.078,2046.506,845.734z"/>
			<path fill="#FFC0BB" d="M2174.786,851.903c0.549,0.621,1.572,0.392,1.789-0.408c1.687-6.196,7.116-25.659,8.79-25.589
				c1.991,0.084-2.437,17.593-0.898,18.621c1.538,1.027,5.426-16.161,7.539-15.728c2.113,0.433-1.957,15.986-1.13,16.479
				c0.827,0.494,6.319-13.991,7.716-14.482c1.396-0.492-2.586,15.685-1.752,16.568c0.834,0.882,7.294-9.367,8.238-8.915
				c0.942,0.453,1.648,0.596-6.285,27.838c0,0-4.373,9.234-3.855,12.19l-7.317,5.471l-11.283-5.312c0,0-12.935-34.148-12.058-35.372
				C2165.115,842.097,2166.33,842.343,2174.786,851.903z"/>
			<polygon fill="#FFC0BB" points="2075.742,1075.018 2075.938,1122.653 2029.661,1115.521 2037.382,1061.955 			"/>
			<path opacity="0.6" fill="#FC8D84" d="M2033.827,1086.613l3.555-24.658l38.401,17.578l0.021,9.402
				C2066.551,1091.199,2049.234,1093.225,2033.827,1086.613z"/>
			<path fill="#E03268" d="M1992.128,1802.357v24.819c0,2.05-1.662,3.711-3.712,3.711h-58.111c-4.205,0-5.807-5.491-2.26-7.751
				l32.601-20.779C1960.646,1802.357,1973.436,1811.703,1992.128,1802.357z"/>
			<g>
				<g>
					<g>
						<path fill="#07085B" d="M1939.056,1380.699c0.116-5.31-13.701,10.34-13.44,6.104c5.424-88.128,177.612-14.236,177.612-14.236
							l42.03,30.845l47.454,408.44c0,0-25.761,7.457-42.708,1.357l-105.078-350.002l-12.924-4.971
							C2032.002,1458.236,1974.533,1418.141,1939.056,1380.699z"/>
					</g>
				</g>
			</g>
			<g>
				<g>
					<g>
						<path fill="#06BFAD" d="M1925.42,1390.398c-0.05,1.031-0.097,2.082-0.139,3.169
							C1925.323,1392.48,1925.37,1391.43,1925.42,1390.398z"/>
					</g>
					<g>
						<path fill="#06BFAD" d="M1925.278,1393.619c-0.042,1.104-0.081,2.24-0.116,3.398
							C1925.197,1395.859,1925.236,1394.723,1925.278,1393.619z"/>
					</g>
					<g>
						<path fill="#06BFAD" d="M1925.148,1397.466c-0.035,1.202-0.068,2.428-0.096,3.685
							C1925.08,1399.895,1925.113,1398.667,1925.148,1397.466z"/>
					</g>
					<g>
						<path fill="#06BFAD" d="M1925.615,1386.803c-0.059,0.951-0.112,1.944-0.163,2.953
							C1925.503,1388.747,1925.557,1387.754,1925.615,1386.803z"/>
					</g>
					<g>
						<path fill="#07085B" d="M1925.636,1366.781c35.478,37.441,106.366,91.455,106.366,91.455l12.924,4.971l-12.924-4.971
							l-39.951,353.615c0,0-28.473,5.424-44.742-3.389C1947.309,1808.463,1923.32,1471.862,1925.636,1366.781z"/>
					</g>
					<g>
						<path fill="#06BFAD" d="M2192.712,1811.852c0,0-11.095,3.213-23.512,3.695
							C2181.617,1815.064,2192.712,1811.852,2192.712,1811.852L2192.712,1811.852z"/>
					</g>
					<g>
						<path fill="#06BFAD" d="M2154.974,1814.584c1.144,0.232,2.31,0.424,3.487,0.571
							C2157.283,1815.008,2156.117,1814.816,2154.974,1814.584z"/>
					</g>
					<g>
						<path fill="#06BFAD" d="M2169.2,1815.547c-2.956,0.115-5.987,0.076-8.962-0.197
							C2163.213,1815.623,2166.244,1815.662,2169.2,1815.547z"/>
					</g>
				</g>
			</g>
			<path fill="#050645" d="M2145.258,1403.411l6.772,58.292c-17.921,6.937-61.601,14.351-94.514-57.645
				c-10.379-22.705-13.047-39.048-11.135-50.781c31.522,8.429,56.846,19.289,56.846,19.289L2145.258,1403.411z"/>
			<path fill="#DAEEF7" d="M1987.269,1165.479c1.988,0,31.811-67.597,31.811-67.597c25.515,17.894,60.142,5.468,60.142,5.468
				s139.337,254.981,45.894,294.744c-93.444,39.764-181.585-8.614-181.585-8.614s-19.882-51.692-19.882-53.682
				C1923.647,1333.811,1985.28,1165.479,1987.269,1165.479z"/>
			<path fill="#55769F" d="M2168.854,879.185c0,0,6.035,120.974-5.302,143.147c-37.608,73.563-84.331,81.018-84.331,81.018
				s-16.07,257.301-2.816,318.934c0,0,44.07,13.587,109.018-16.899c0,0-49.704-199.479-47.053-224.662
				c0,0,79.525-70.91,82.177-154.413c2.651-83.503-19.219-157.729-19.219-157.729L2168.854,879.185z"/>
			<path fill="#55769F" d="M1954.464,1413.006c0,0,4.971-95.764,26.841-186.557c21.869-90.793,37.774-128.567,37.774-128.567
				c-29.325-32.308-24.454-61.513-21.87-99.408c2.982-43.739,45.729-131.219,45.729-131.219l-28.829-18.887
				c-138.177,166.011-61.633,298.225-61.633,298.225s-51.692,182.91-58.65,238.579
				C1893.825,1385.172,1921.328,1401.076,1954.464,1413.006z"/>
			<path fill="#FFFFFF" d="M2137.026,1180.446c-1.662-1.178-3.631-2.979-5.554-5.281c-5.859-7.072-8.898-15.034-10.998-23.934
				c1.272,3.8,4.67,14.837,11.83,23.233c3.208,3.66,4.904,4.903,6.457,5.901c-0.25,0.228-0.393,0.355-0.393,0.355
				c-0.018,0.166-0.031,0.343-0.044,0.523c-1.837,0.38-5.067,0.494-10.504-2.466c-3.375-1.771-6.05-3.973-8.837-6.341
				c1.827,1.297,5.596,4.034,9.161,5.704C2130.627,1179.362,2134.264,1180.639,2137.026,1180.446z"/>
			<path fill="#FFFFFF" d="M1953.532,1145.979c2.367-1.501,4.42-3.65,6.312-5.81c5.864-6.875,9.079-15.02,11.83-23.233
				c-2.091,8.853-5.11,16.83-10.997,23.934c-1.919,2.295-3.862,4.08-5.554,5.281c1.294,0.088,2.853-0.156,3.888-0.452
				c1.709-0.431,3.387-1.062,4.993-1.852c3.317-1.557,6.598-3.885,9.161-5.704c-2.474,2.102-5.308,4.487-8.837,6.342
				c-1.604,0.873-3.298,1.604-5.075,2.127c-1.804,0.454-3.627,0.84-5.665,0.289l-1.058-0.286L1953.532,1145.979z"/>
			<polygon fill="#07085B" points="2009.359,977.814 2006.562,1010.506 2011.728,1013.756 2021.276,973.947 			"/>
			
				<ellipse transform="matrix(0.9821 -0.1884 0.1884 0.9821 -154.1875 395.8245)" fill="#F99893" cx="2005.582" cy="1009.187" rx="10.922" ry="13.653"/>
			<path fill="#FFC0BB" d="M2007.832,1037.351c-1.517-9.464-1.3-19.146-0.459-27.461c0.18-1.784,0.256-3.574,0.299-5.366
				c0.175-7.238,1.685-14.647,4.854-21.944c10.194-23.477,35.072-37.722,60.473-34.569c34.217,4.248,56.765,36.44,50.179,69.35
				c3.977-1.272,8.086-0.928,11.308,1.359c6.181,4.392,6.742,14.212,1.254,21.938c-5.487,7.726-14.945,10.43-21.126,6.039
				c-0.858-0.61-1.597-1.332-2.237-2.132c-8.457,27.432-35.727,44.453-63.152,38.491
				C2028.402,1078.529,2011.216,1061.257,2007.832,1037.351z"/>
			<path fill="#333333" d="M2071.088,1011.205c-1.344,3.382,1.099,7.031,4.803,7.017c2.019-0.008,3.881-1.293,4.631-3.167
				c1.354-3.386-1.094-7.047-4.806-7.025C2073.696,1008.041,2071.834,1009.33,2071.088,1011.205z"/>
			<path fill="#333333" d="M2027.755,1004.719c-1.347,3.384,1.103,7.037,4.811,7.016c2.021-0.012,3.883-1.303,4.628-3.18
				c1.342-3.382-1.103-7.029-4.808-7.012C2030.365,1001.553,2028.502,1002.842,2027.755,1004.719z"/>
			<path fill="#F99893" d="M2064.344,1046.816c-2.686,1.343-5.711,2.33-8.184,2.809c-2.816,0.547-5.7,0.723-8.52,0.325
				c-2.82-0.383-5.533-1.364-8.012-2.793c-2.46-1.464-4.662-3.372-6.654-5.503c2.025,2.852,3.862,4.507,6.241,6.166
				c2.462,1.609,5.075,2.652,8.285,3.137c2.958,0.392,5.976,0.173,8.833-0.574
				C2059.187,1049.636,2061.938,1048.481,2064.344,1046.816z"/>
			<path fill="#07085B" d="M2066.973,1000.872c2.652-0.472,5.154-0.775,7.609-0.814c2.448-0.043,4.818,0.225,7.076,0.84
				c2.239,0.64,4.464,1.481,6.504,2.824c2.78,1.583,4.779,3.521,6.234,4.476c-0.93-2.348-2.422-5.139-4.467-6.776
				c-1.971-1.981-4.597-3.335-7.331-4.091c-2.755-0.747-5.679-0.768-8.383-0.141
				C2071.525,997.846,2068.962,999.008,2066.973,1000.872z"/>
			<path fill="#07085B" d="M2046.73,997.54c-1.288-2.402-3.343-4.326-5.682-5.81c-2.359-1.461-5.137-2.377-7.985-2.554
				c-2.832-0.159-5.753,0.28-8.255,1.525c-2.457,0.896-4.781,3.076-6.403,4.989c1.821-0.476,4.104-1.617,7.339-2.242
				c2.364-0.618,4.74-0.702,7.067-0.59c2.336,0.14,4.666,0.646,6.972,1.472C2042.096,995.153,2044.368,996.242,2046.73,997.54z"/>
			<path fill="#F99893" d="M2055.556,1003.959c-2.391,2.237-4.573,4.666-6.638,7.194c-2.07,2.528-3.995,5.176-5.707,8.007
				c-0.977,1.695-2.206,3.963-2.501,5.895c-0.166,1.068-0.083,2.105,1.703,3.864c1.169,1.239,2.486,2.252,3.842,3.185
				c1.37,0.914,2.777,1.759,4.265,2.448c-2.472-2.118-4.971-4.233-6.928-6.656c-0.312-0.372-0.91-1.249-1.119-1.743
				c-0.105-0.358,0.085-1.152,0.345-1.816c0.533-1.397,1.293-2.801,2.114-4.158c1.614-2.746,3.442-5.408,5.234-8.097
				C2051.978,1009.401,2053.805,1006.721,2055.556,1003.959z"/>
			<path fill="#07085B" d="M2015.445,942.91c0,0-17.173-3.308,3.979-13.675c21.152-10.369,73.007-16.407,100.116,6.816
				c0,0,9.118-11.696,17.311-6.558c8.193,5.138-8.53,10.819-8.53,10.819s11.447,2.205,13.654,8.564
				c1.632,4.701-5.368,3.309-9.131,2.262c6.221,2.564,24.517,19.843,0.756,67.039c-4.206-1.974-31.397-40.757-31.397-40.757
				s-54.661,17.961-44.696,3.065c0,0-63.702,16.021-48.262-12.855C2009.244,967.631,1985.763,964.099,2015.445,942.91z"/>
			<path fill="#07085B" d="M2133.6,1018.178c0,0-4.121-3.156-10.423-0.818c-6.301,2.337-10.306,16.473-10.306,16.473
				s-20.627,16.892-10.567-56.728c9.882-72.331,23.567,12.041,23.567,12.041L2133.6,1018.178z"/>
		</g>
		<g>
			<path fill="#E03268" d="M1992.316,789.569l-8.922-0.877c1.558-0.854,3.442-1.272,5.429-1.077l223.51,21.979
				c11.694,1.15,20.348,10.485,19.328,20.852l-1.173,11.922c-1.019,10.365-11.325,17.837-23.019,16.687l-221.004-21.8
				L1992.316,789.569z"/>
			<path fill="#FEB546" d="M2211.74,840.522l1.172-11.922c1.02-10.366-7.634-19.701-19.328-20.852l4.8,0.472
				c11.694,1.15,20.348,10.486,19.328,20.852l-1.172,11.922c-1.02,10.366-11.326,17.837-23.02,16.687l-4.736-0.467
				C2200.452,858.33,2210.723,850.869,2211.74,840.522z"/>
			<path fill="#FEB546" d="M2159.394,835.375l1.173-11.922c1.019-10.366-7.635-19.701-19.328-20.852l4.8,0.472
				c11.693,1.15,20.347,10.485,19.327,20.851l-1.172,11.922c-1.02,10.366-11.325,17.837-23.02,16.688l-4.735-0.467
				C2148.105,853.183,2158.376,845.722,2159.394,835.375z"/>
			<path fill="#FF5B7E" d="M2119.36,800.495c11.183,1.1,19.458,10.027,18.483,19.94l-1.325,13.473
				c-0.975,9.913-10.83,17.058-22.014,15.958l-139.14-13.683l0.296-3.013l0.575,0.057l35.664,0.509l9.595-24.16
				c0,0-12.448-15.096-13.313-15.539c-0.864-0.442-27.683-4.165-27.683-4.165l-0.574-0.062l0.295-2.998L2119.36,800.495z"/>
			<path fill="#DAEEF7" d="M1986.825,812.297c1.43-14.536-6.352-22.416-6.352-22.416l135.74,13.348
				c10.271,1.01,17.873,9.21,16.978,18.315l-1.02,10.371c-0.896,9.105-9.948,15.668-20.22,14.658l-135.741-13.348
				C1976.211,833.225,1985.025,830.601,1986.825,812.297z"/>
			<path fill="#DAEEF7" d="M2133.191,821.544l-1.02,10.371c-0.135,1.363-0.455,2.668-0.932,3.9
				c-3.602-10.379-11.436-20.806-27.836-25.523c-38.291-11.015-122.931-20.411-122.931-20.411l135.74,13.348
				C2126.485,804.238,2134.087,812.438,2133.191,821.544z"/>
		</g>
	</g>
	<g>
		<path fill="#55769F" d="M1721.255,1132.77l-9.217,20.56c-0.762,1.7-0.002,3.692,1.696,4.454l48.143,21.58
			c3.484,1.563,6.85-2.391,4.751-5.581l-18.631-29.025C1747.997,1144.757,1733.27,1147.453,1721.255,1132.77z"/>
		<path fill="#55769F" d="M1660.09,1132.77l-9.217,20.56c-0.762,1.7-0.002,3.692,1.697,4.454l48.142,21.58
			c3.484,1.563,6.85-2.391,4.751-5.581l-18.63-29.025C1686.833,1144.757,1672.104,1147.453,1660.09,1132.77z"/>
		<path fill="#07085B" d="M1556.102,565.929l-5.118,32.107l-10.815-42.808c0,0,15.158-7.355,15.826-4.681
			C1556.664,553.223,1556.102,565.929,1556.102,565.929z"/>
		<polygon fill="#FFC0BB" points="1470.061,635.033 1465.379,690.538 1514.359,688.199 1508.713,639.046 		"/>
		<path fill="#F99893" d="M1511.398,662.422l-2.686-23.376l-38.652-4.013l-1.621,19.223
			C1476.124,661.912,1489.944,669.85,1511.398,662.422z"/>
		<g>
			
				<ellipse transform="matrix(-0.9003 -0.4353 0.4353 -0.9003 2683.8953 1818.6272)" fill="#F99893" cx="1550.253" cy="601.9" rx="9.8" ry="12.25"/>
			<path fill="#FFC0BB" d="M1548.538,602.095c0.257-1.587,0.604-3.157,0.982-4.721c1.524-6.317,1.93-13.089,0.871-20.148
				c-3.404-22.712-21.676-40.819-44.426-43.964c-30.647-4.237-57.645,18.455-59.552,48.509c-3.152-2.023-6.795-2.675-10.117-1.437
				c-6.374,2.375-9.133,10.76-6.164,18.727c2.97,7.968,10.544,12.501,16.918,10.125c0.885-0.331,1.692-0.786,2.432-1.331
				c0.984,25.737,20.687,46.806,45.843,47.985c12.303,0.575,23.749-3.713,32.634-11.224
				C1540.037,635.739,1546.148,616.892,1548.538,602.095z"/>
			<path fill="#F99893" d="M1510.387,585.313c0.1,2.998,0.123,5.925,0.277,8.792c0.188,2.803,0.492,5.801,1.617,7.776
				c1.145,1.596,2.047,2.621,2.075,4.584c0.068,1.984-0.979,3.758-2.284,4.845c-2.674,2.249-6.139,2.463-9.007,1.756
				c2.927-0.516,5.731-1.523,7.364-3.433c0.756-0.951,1.257-2.013,1.082-3.006c-0.124-1.1-0.462-1.324-1.789-3.164
				c-0.938-1.599-1.238-3.219-1.417-4.785c-0.146-1.574-0.125-3.1,0.021-4.615C1508.616,591.05,1509.26,588.106,1510.387,585.313z"
				/>
			<path fill="#333333" d="M1493.002,588.543c0.335,3.112-2.412,5.616-5.48,4.993c-1.906-0.388-3.401-2.033-3.603-3.968
				c-0.323-3.103,2.411-5.592,5.47-4.98C1491.296,584.969,1492.794,586.609,1493.002,588.543z"/>
			<path fill="#333333" d="M1532.072,592.962c0.324,3.103-2.413,5.593-5.471,4.98c-1.906-0.382-3.404-2.022-3.613-3.956
				c-0.334-3.109,2.412-5.615,5.479-4.993C1530.374,589.381,1531.869,591.026,1532.072,592.962z"/>
			<path fill="#F99893" d="M1485.361,620.208c1.199,1.044,2.45,2.012,3.774,2.867c1.305,0.879,2.66,1.677,4.069,2.356
				c2.811,1.358,5.793,2.351,8.865,2.724c3.07,0.387,6.196,0.12,9.204-0.678c2.999-0.843,5.855-2.223,8.563-3.89
				c-2.939,2.47-5.363,3.699-8.293,4.771c-3.081,1.026-6.157,1.375-9.62,0.986c-3.229-0.419-6.351-1.501-9.146-3.1
				C1489.982,624.646,1487.415,622.649,1485.361,620.208z"/>
			<path fill="#07085B" d="M1498.76,578.96c-2.325-0.72-4.515-1.268-6.681-1.603c-2.161-0.333-4.28-0.391-6.345-0.139
				c-2.053,0.274-4.118,0.715-6.104,1.617c-1.521,0.475-5.211,2.645-6.172,3.065c1.127-2.076,2.767-4.3,4.792-5.535
				c2.009-1.528,4.534-2.404,7.079-2.723c2.563-0.308,5.182,0.067,7.508,0.999C1495.149,575.591,1497.268,577.002,1498.76,578.96z"
				/>
			<path fill="#07085B" d="M1518.885,581.226c1.845-1.63,4.195-2.604,6.648-3.087c2.462-0.462,5.104-0.321,7.558,0.479
				c2.436,0.807,4.742,2.158,6.416,4.046c1.747,1.602,2.924,4.106,3.625,6.36c-0.873-0.608-4.063-3.449-5.458-4.205
				c-1.773-1.271-3.713-2.105-5.674-2.774c-1.976-0.646-4.065-1-6.251-1.094C1523.559,580.859,1521.306,580.971,1518.885,581.226z"
				/>
		</g>
		<path fill="#070852" d="M1497.032,895.402c0,0-10.214,69.289,56.733,81.361c66.947,12.073,150.246,8.471,150.246,8.471
			l11.591,159.162l34.95,1.783c0,0,89.995-221.146-34.571-255.717l-111.944,0.549l-46.094-3.292c0,0-46.645-11.523-47.192-9.329
			C1510.201,880.586,1498.129,896.501,1497.032,895.402z"/>
		<path fill="#10116B" d="M1435.508,895.768c0,0-10.214,69.289,56.732,81.361c66.947,12.073,150.246,8.471,150.246,8.471
			l11.592,159.162l34.95,1.784c0,0,89.994-221.146-34.571-255.716l-111.944,0.548l-46.095-3.292c0,0-46.644-11.524-47.191-9.329
			C1448.677,880.952,1436.604,896.866,1435.508,895.768z"/>
		<path fill="#FF5B7E" d="M1519.831,668.404c0,0,46.095,5.854,57.802,15.365c11.706,9.511,68.045,149.257,68.045,149.257
			l-46.826,54.875l-99.507,0.732c0,0-74.63,40.241-121.456,2.195s-22.682-170.478,4.39-199.013
			c27.072-28.535,75.362-27.802,75.362-27.802S1501.539,694.744,1519.831,668.404z"/>
		<path fill="#FFFFFF" d="M1430.568,737.912c1.648,7.616,2.658,15.348,3.376,23.104c0.397,3.877,0.568,7.771,0.792,11.663
			c0.117,3.897,0.208,7.796,0.154,11.701c-0.153,7.801-0.58,15.628-1.922,23.354c-1.309,7.694-3.213,15.414-6.79,22.368
			c2.405-7.417,3.599-15.041,4.463-22.685c0.849-7.65,1.143-15.366,1.241-23.078c0.159-7.714-0.029-15.443-0.273-23.179
			C1431.335,753.425,1430.981,745.684,1430.568,737.912z"/>
		<path fill="#FFFFFF" d="M1568.486,732.791c2.106,11.334,4.336,22.626,6.604,33.902c2.314,11.263,4.709,22.504,7.436,33.656
			c2.695,11.157,5.69,22.241,9.313,33.109c1.815,5.432,3.843,10.792,6.219,15.994c2.342,5.213,5.119,10.261,8.843,14.673
			c-4.235-3.955-7.351-8.966-10.164-14.016c-2.728-5.12-5.081-10.437-7.106-15.857c-2.072-5.409-3.849-10.921-5.531-16.451
			c-1.624-5.549-3.109-11.136-4.496-16.741c-1.32-5.623-2.589-11.256-3.727-16.914c-1.099-5.666-2.179-11.334-3.086-17.032
			C1570.905,755.733,1569.441,744.284,1568.486,732.791z"/>
		<g>
			<path fill="#EDEDED" d="M1668.297,758.071c-8.516-13.25-78.266-35.75-78.266-35.75c0,21.5,0,22.429,0,22.429l71,24.821
				L1668.297,758.071z"/>
			<polygon fill="#FFFFFF" points="1663.281,757.17 1582.281,719.821 1582.281,734.321 1661.281,762.821 			"/>
			<polygon fill="#EDEDED" points="1658.781,757.17 1573.281,724.821 1573.281,749.821 1657.919,762.821 			"/>
			<path fill="#FFFFFF" d="M1668.297,754.618c0,0,16.484-38.547,23.234-46.547c0,25.359-10.25,57.25-10.25,57.25L1668.297,754.618z"
				/>
			<polygon fill="#EDEDED" points="1675.495,756.321 1695.479,705.821 1695.479,729.882 1681.75,762.821 			"/>
			<polygon fill="#FFFFFF" points="1681.75,757.17 1703.531,708.071 1703.531,725.571 			"/>
			<polygon fill="#26426E" points="1681.75,908.46 1709.21,861.162 1709.21,709.872 1681.75,757.17 			"/>
			<polygon fill="#55769F" points="1555.227,885.607 1652.463,908.46 1652.463,757.17 1555.227,734.317 			"/>
			<path fill="#E0E0E0" d="M1652.463,757.17c8.568-4.099,26.505-2.651,29.287,0C1680.281,765.821,1654.645,767.52,1652.463,757.17z"
				/>
			<path fill="#3A5782" d="M1652.463,908.46c0,3.704,29.421,3.704,29.421,0V757.17c-2.978,4.401-26.103,4.276-29.421,0V908.46z"/>
		</g>
		<path fill="#FFC0BB" d="M1591.65,856.276c-0.293-2.317-17.878-4.903-24.343-5.238c-4.897-0.252-37.361-1.338-48.403-1.836
			l0.811,2.84l-0.167,12.539l-1.813,8.309c9.687,0.613,33.37,1.54,38.301,2.516c6.589,1.303,18.015,6.27,18.015,6.27
			s4.752-1.08-1.287-3.685c-4.848-2.093-8.252-5.334-9.691-6.946c-0.828-0.925,0.07-2.577,0.672-2.419
			c16.442,4.31,18.134,5.021,18.134,5.021s19.324-0.108,0.109-4.451c-11.519-2.604-15.646-4.117-16.672-5.41
			c-0.437-0.549,0.344-2.422,1.045-2.465c9.979-0.616,27.891,2.921,22.983,0.601c-4-1.892-16.6-3.965-21.5-4.747
			c-0.301-0.047-0.787-1.873,0.551-1.986C1577.899,854.398,1591.922,858.427,1591.65,856.276z"/>
		<path fill="#FFFFFF" d="M1419.318,828.181c4.047,0.984,8.037,2.115,12.103,2.965c4.034,0.962,8.128,1.664,12.18,2.517
			c8.157,1.487,16.34,2.783,24.546,3.935c8.216,1.079,16.443,2.071,24.691,2.867c8.217,0.815,16.573,1.515,24.707,1.969l1.094,0.061
			l0.24,0.949c0.699,2.757,1.154,5.448,1.502,8.206c0.344,2.747,0.488,5.517,0.484,8.288c-0.023,2.774-0.262,5.549-0.719,8.296
			c-0.505,2.742-1.316,5.428-2.408,8.001l-0.095,0.224l-0.178,0.118l-9.037,6.063c-3.011,2.022-6.032,4.029-9.084,5.997
			c2.833-2.271,5.693-4.501,8.567-6.716l8.613-6.649l-0.271,0.34c0.905-2.485,1.544-5.06,1.894-7.691
			c0.319-2.634,0.466-5.294,0.387-7.959c-0.088-2.664-0.352-5.323-0.725-7.965c-0.387-2.628-0.907-5.296-1.599-7.795l1.334,1.01
			c-4.299-0.114-8.369-0.391-12.551-0.695c-4.156-0.307-8.309-0.636-12.452-1.073c-8.288-0.855-16.558-1.888-24.787-3.204
			c-8.228-1.328-16.413-2.935-24.523-4.851c-4.039-1.032-8.085-2.026-12.062-3.282
			C1427.162,830.978,1423.234,829.574,1419.318,828.181z"/>
		<path fill="#07085B" d="M1557.084,535.553c0,0,15.367,0.494-0.759-12.5c-16.127-12.994-59.423-28.231-87.175-13.577
			c0,0-5.549-11.797-13.572-8.982c-8.021,2.817,5.217,10.935,5.217,10.935s-10.244-0.33-13.371,4.695
			c-2.311,3.715,3.962,3.878,7.393,3.71c-5.832,0.992-28.189,15.112-16.969,60.193c3.988-0.877,26.717-33.834,26.717-33.834
			s51.974,28.876,46.834,5.915c0,0,53.847,33.604,46.207,5.846C1557.605,557.954,1578.428,559.479,1557.084,535.553z"/>
		<path fill="#07085B" d="M1437.804,580.298c0,0,4.305-1.513,8.933,2.161c4.629,3.673,4.117,16.58,4.117,16.58
			s22.094,14.247,19.765-46.04c-2.479-64.136-18.431,5.145-18.431,5.145L1437.804,580.298z"/>
	</g>
	<g>
		<path fill="#07085B" d="M1197.986,1782.713l9.217,20.56c0.761,1.698,0.002,3.692-1.696,4.454l-48.142,21.58
			c-3.485,1.563-6.85-2.391-4.752-5.581l18.631-29.025C1171.243,1794.7,1185.97,1797.396,1197.986,1782.713z"/>
		<path fill="#07085B" d="M1260.374,1780.266l9.217,20.561c0.76,1.698,0.001,3.692-1.697,4.453l-48.142,21.581
			c-3.485,1.563-6.85-2.392-4.751-5.581l18.63-29.026C1233.631,1792.253,1248.358,1794.949,1260.374,1780.266z"/>
		<path fill="#FF5500" d="M1316.641,1114.479c0,0-52.466-8.848-70.07,49.771l21.728,32.524c0,0,45.57-17.508,45.75-19.223
			C1314.228,1175.836,1316.641,1114.479,1316.641,1114.479z"/>
		<path fill="#FF5500" d="M1401.089,1140.886c0,0,15.302,23.016,23.107,32.14c19.637,22.956,22.167,15.754,34.371,35.5
			c13.175,21.312-0.154,34.655-7.729,40.798c-7.577,6.143,5.1,28.862-9.017,41.598c-18.479,16.671-35.571,0.95-48.283,10.29
			c-12.71,9.34-15.492,23.185-45.622,20.569c-30.132-2.616-29.837-101.135-29.837-101.135s24.663-52.231,25.641-52.662
			S1401.089,1140.886,1401.089,1140.886z"/>
		<path fill="#FF5500" d="M1246.571,1164.249c0,0-1.8,18.078-7.779,28.491c-15.041,26.199-23.145,17.617-31.476,39.284
			c-8.995,23.385,6.578,34.026,15.162,38.656c8.584,4.632,0.34,29.309,16.573,39.206c21.249,12.955,35.13-5.664,49.354,1.157
			c14.222,6.821,19.522,19.909,48.646,11.752c29.125-8.158,10.566-104.913,10.566-104.913s-33.921-46.752-34.962-46.994
			C1311.612,1170.646,1246.571,1164.249,1246.571,1164.249z"/>
		<path fill="#FFC0BB" d="M1322.696,1280.917c0,0,50.287-9.251,73.413-8.47c23.125,0.779-14.015,60.908-14.015,60.908l-37.768,0.839
			c0,0-23.153-25.858-21.63-28.867c1.522-3.011-0.072-22.737-0.072-22.737L1322.696,1280.917z"/>
		<g>
			<path fill="#FFC0BB" d="M1367.535,1232.933l13.266,40.259c0,0-11.549,23.877-46.915,13.578c0,0,4.036-8.338-1.377-25.509
				C1326.977,1243.715,1367.535,1232.933,1367.535,1232.933z"/>
			<path opacity="0.6" fill="#FC8D84" d="M1367.535,1232.933l6.225,18.807c-3.707,13.745-15.742,23.105-38.44,26.012
				c0.009-4.086-0.624-9.555-2.811-16.49C1326.977,1243.715,1367.535,1232.933,1367.535,1232.933z"/>
			<g>
				
					<ellipse transform="matrix(0.9157 -0.4019 0.4019 0.9157 -377.6848 615.1945)" fill="#F99893" cx="1277.155" cy="1207.613" rx="10.343" ry="12.928"/>
				<path fill="#FFC0BB" d="M1285.161,1233.143c-3.393-8.418-5.23-17.403-6.205-25.257c-0.209-1.685-0.515-3.354-0.852-5.018
					c-1.363-6.721-1.529-13.879-0.14-21.283c4.472-23.821,24.443-42.21,48.557-44.644c32.486-3.281,60.08,21.694,60.926,53.465
					c3.402-2.012,7.271-2.559,10.726-1.124c6.63,2.752,9.216,11.702,5.776,19.989c-3.441,8.288-11.605,12.775-18.234,10.023
					c-0.921-0.383-1.755-0.895-2.515-1.498c-2.034,27.105-23.628,48.563-50.206,48.831
					C1313.045,1266.83,1293.405,1254.73,1285.161,1233.143z"/>
				<path fill="#F99893" d="M1319.843,1191.664c1.047,2.994,1.592,6.121,1.77,9.308c0.086,1.6,0.048,3.209-0.169,4.855
					c-0.251,1.638-0.631,3.327-1.672,4.959c-1.208,1.551-1.839,2.063-2.019,3.306c-0.222,1.068,0.279,2.229,1.056,3.264
					c1.675,2.089,4.613,3.238,7.68,3.861c-3.053,0.602-6.679,0.221-9.383-2.245c-1.321-1.19-2.342-3.083-2.189-5.145
					c0.149-2.14,1.11-3.093,2.356-4.716c0.655-0.985,1.056-2.372,1.371-3.77c0.344-1.41,0.443-2.915,0.631-4.414
					C1319.536,1197.904,1319.655,1194.818,1319.843,1191.664z"/>
				<path fill="#333333" d="M1338.049,1195.756c-0.463,3.266,2.337,6.006,5.596,5.464c2.024-0.336,3.662-2.011,3.948-4.043
					c0.46-3.265-2.336-6-5.592-5.462C1339.977,1192.049,1338.337,1193.725,1338.049,1195.756z"/>
				<path fill="#333333" d="M1296.676,1198.891c-0.462,3.26,2.328,5.993,5.577,5.466c2.026-0.329,3.669-2.003,3.963-4.034
					c0.473-3.269-2.329-6.014-5.587-5.475C1298.604,1195.183,1296.964,1196.858,1296.676,1198.891z"/>
				<path opacity="0.3" fill="#F99893" d="M1338.846,1233.177c0,0-6.896-2.471-13.384,1.781c0,0-7.015-4.391-12.542-0.198
					c0,0,2.566,10.445,14.089,9.741C1338.532,1243.797,1338.846,1233.177,1338.846,1233.177z"/>
				<path fill="#F99893" d="M1344.883,1229.434c-1.305,1.056-2.661,2.029-4.091,2.879c-1.41,0.877-2.87,1.666-4.383,2.326
					c-3.018,1.324-6.2,2.256-9.455,2.529c-3.253,0.291-6.54-0.113-9.681-1.072c-3.131-1.004-6.088-2.569-8.879-4.433
					c1.244,1.126,2.581,2.159,4.008,3.072c1.428,0.916,2.973,1.636,4.552,2.281c1.6,0.598,3.266,1.034,4.966,1.276
					c1.702,0.221,3.429,0.264,5.142,0.136c3.422-0.318,6.755-1.339,9.768-2.917
					C1339.838,1233.938,1342.622,1231.93,1344.883,1229.434z"/>
				<path fill="#FF5500" d="M1332.351,1185.414c2.48-0.668,4.81-1.161,7.107-1.432c2.293-0.268,4.53-0.247,6.698,0.098
					c2.153,0.371,4.315,0.914,6.373,1.943c1.581,0.556,5.397,2.993,6.391,3.473c-1.104-2.228-2.75-4.644-4.839-6.023
					c-2.06-1.689-4.688-2.712-7.361-3.146c-2.69-0.423-5.466-0.13-7.956,0.763
					C1336.289,1182.001,1334.002,1183.408,1332.351,1185.414z"/>
				<path fill="#FF5500" d="M1311.039,1187.024c-1.883-1.791-4.324-2.908-6.892-3.513c-2.58-0.583-5.371-0.536-7.99,0.212
					c-2.599,0.756-5.085,2.091-6.923,4.019c-1.907,1.624-3.241,4.215-4.069,6.567c0.938-0.604,4.423-3.482,5.92-4.224
					c1.918-1.272,3.996-2.075,6.089-2.705c2.11-0.606,4.327-0.899,6.637-0.913
					C1306.123,1186.457,1308.496,1186.664,1311.039,1187.024z"/>
			</g>
		</g>
		<path fill="#FFC0BB" d="M1410.167,1526.9c0,0,14.831,69.791-52.461,86.362c-67.291,16.571-152.213,18.255-152.213,18.255
			l-1.571,162.567l-35.419,4.056c0,0-105.693-219.065,18.737-262.209l113.851-6.627l46.653-6.307c0,0,46.683-14.709,47.382-12.514
			C1395.824,1512.682,1409.121,1528.086,1410.167,1526.9z"/>
		<path fill="#FFC0BB" d="M1472.743,1523.323c0,0,14.831,69.792-52.461,86.362c-67.291,16.57-152.213,18.256-152.213,18.256
			l-1.569,162.566l-35.421,4.057c0,0-105.693-219.066,18.736-262.21l113.852-6.627l46.653-6.306c0,0,46.684-14.711,47.383-12.514
			C1458.402,1509.104,1471.697,1524.51,1472.743,1523.323z"/>
		<path fill="#FEB546" d="M1230.804,1515.095c-56.741,0.866-108.498,33.448-126.906,96.724
			c-18.408,63.276-60.408,128.546-56.408,127.911c89,49.819,116.977-0.222,178.488,14.572c61.512,14.793,83.314,8.101,83.314,8.101
			c-17.803-89.308-41.223-134.461-41.223-134.461c5.17,0.926,156.127,3.153,193.42-38.18c10.46-11.594,18.475-26.167,16.872-61.799
			C1475.379,1461.647,1247.265,1514.844,1230.804,1515.095z"/>
		<path fill="#DAEEF7" d="M1247.718,1632.604c1.941-0.354,3.881-0.682,5.793-1.133c1.915-0.442,3.807-0.961,5.679-1.523
			c0.938-0.293,1.883-0.609,2.808-0.951c-0.97-0.201-1.912-0.482-2.849-0.818c-1.85-0.652-3.577-1.592-5.199-2.661
			c-1.566-1.153-3.053-2.401-4.349-3.827c-1.303-1.417-2.421-2.982-3.408-4.608l1.927,2.092c0.692,0.646,1.333,1.333,2.054,1.935
			c1.373,1.276,2.907,2.35,4.479,3.321c1.585,0.958,3.263,1.733,4.991,2.341c1.717,0.581,3.576,1.006,5.29,1.067l3.146,0.114
			l-2.791,1.297c-1.896,0.881-3.784,1.459-5.72,2.002c-1.927,0.54-3.889,0.921-5.852,1.256c-1.966,0.318-3.936,0.596-5.919,0.742
			c-1.98,0.146-3.962,0.242-5.944,0.234C1243.816,1633.196,1245.776,1632.955,1247.718,1632.604z"/>
		<path fill="#FFC0BB" d="M1265.546,1378.892c0,0-4.581,114.03-17.404,131.89l70.526-16.028v-124.104L1265.546,1378.892z"/>
		<path fill="#FEB546" d="M1294.042,1394.462c0,0,11.367,28.702,13.151,43.945c4.434,37.858-0.382,64.564-8.218,86.112
			c-10.99,30.226,74.07,18.726,76.118,18.774c89.884,2.136,89.047-1.532,89.047-1.532l14.35-11.518
			c-2.001-36.93-7.109-68.865-6.313-101.803l0.821-33.979l-4.122-34.347l-127.231-10.021L1294.042,1394.462z"/>
		<g>
			<path fill="#EDEDED" d="M1250.488,1419.816c7.769-12.089,71.407-32.617,71.407-32.617c0,19.616,0,20.463,0,20.463l-64.778,22.646
				L1250.488,1419.816z"/>
			<path fill="#EDEDED" d="M1250.488,1419.816c7.769-12.089,71.407-32.617,71.407-32.617c0,19.616,0,20.463,0,20.463l-64.778,22.646
				L1250.488,1419.816z"/>
			<polygon fill="#FFFFFF" points="1255.063,1418.994 1328.966,1384.918 1328.966,1398.147 1256.888,1424.15 			"/>
			<polygon fill="#EDEDED" points="1259.169,1418.994 1337.177,1389.48 1337.177,1412.289 1259.956,1424.15 			"/>
			<path fill="#FFFFFF" d="M1250.488,1416.666c0,0-15.041-35.169-21.199-42.468c0,23.137,9.352,52.233,9.352,52.233
				L1250.488,1416.666z"/>
			<polygon fill="#EDEDED" points="1243.92,1418.22 1225.687,1372.145 1225.687,1394.097 1238.213,1424.15 			"/>
			<polygon fill="#FFFFFF" points="1238.213,1418.994 1218.34,1374.198 1218.34,1390.164 			"/>
			<polygon fill="#F5577A" points="1238.213,1557.027 1219.978,1515.061 1219.978,1377.027 1238.213,1418.994 			"/>
			<polygon fill="#FF5B7E" points="1353.65,1536.177 1264.934,1557.027 1264.934,1418.994 1353.65,1398.144 			"/>
			<path fill="#E0E0E0" d="M1264.934,1418.994c-7.818-3.739-24.183-2.419-26.721,0
				C1239.553,1426.888,1262.944,1428.437,1264.934,1418.994z"/>
			<path fill="#DE4B6C" d="M1264.934,1557.027c0,3.379-26.843,3.379-26.843,0v-138.033c2.716,4.016,23.815,3.902,26.843,0V1557.027z
				"/>
		</g>
		<path fill="#FFC0BB" d="M1499.645,1365.123l-60.387,27.972c0,0-4.699,77.253-7.613,80.667
			c-5.281,6.186-58.827,23.911-87.034,29.096c-4.54,0.834-9.206,0.474-13.56-1.064c-13.986-4.942-38.745-13.834-42.652-15.156
			c-6.132-2.076-23.429-6.162-24.556-4.117c-1.048,1.898,13.472,3.33,22.014,7.574c1.202,0.598,0.076,2.115-0.221,2.049
			c-4.843-1.084-17.318-3.808-21.733-3.525c-5.417,0.346,12.534,3.669,21.582,7.926c0.635,0.299,0.67,2.326,0.06,2.677
			c-1.43,0.823-5.824,0.706-17.49-1.126c-19.462-3.057-1.541,4.178-1.541,4.178s1.833-0.039,18.706,2.025
			c0.617,0.076,0.843,1.942-0.27,2.497c-1.933,0.964-6.292,2.722-11.571,2.876c-6.573,0.193-2.555,2.951-2.555,2.951
			s12.453-0.398,19.055,0.823c4.943,0.913,27.296,8.793,36.526,11.8l1.14-1.417c12.8,2.978,130.766,11.601,145.094-23.399
			C1498.981,1436.08,1499.645,1365.123,1499.645,1365.123z"/>
		<path fill="#FEB546" d="M1322.696,1280.917c0,0,34.187,39.902,73.413-8.47c0,0,42.856-3.492,74.454,18.947
			c31.6,22.439,50.52,72.842,50.52,72.842s-45.354,30.226-81.908,30.226l-85.73-30.7l-59.401,30.7c0,0-27.582-1.832-50.937-13.739
			C1243.105,1380.723,1247.134,1300.609,1322.696,1280.917z"/>
		<path fill="#07085B" d="M1428.748,1348.992c1.474,4.947,2.801,9.936,4.117,14.929c2.465,9.805,4.73,19.144,6.393,29.174
			c3.096,0.142,6.587-0.31,9.65-0.75c16.503-2.937,27.344-7.558,42.039-13.574c22.018-10.028,19.047-9.059,30.135-14.534
			c-12.892,8.153-19.833,11.828-29.219,16.522c-12.871,5.968-25.174,11.489-42.494,14.539c-7.569,1.033-9.749,0.806-12.622,0.481
			c-1.117-7.355-2.397-14.887-5.912-31.38l-3.271-15.104l-3.367-15.101C1425.831,1339.092,1427.28,1344.043,1428.748,1348.992z"/>
		<path fill="#07085B" d="M1292.865,1358.272c-0.998,5.151-1.683,11.952-1.449,18.305c0.11,2.964,2.297,11.25,4.824,19.652
			c-0.469,0.177-0.939,0.354-1.412,0.534c-2.921-8.455-5.429-16.917-5.753-19.998c-0.766-6.359-0.242-12.779,0.829-19.021
			c1.201-6.293,2.781-12.15,5.166-18.224c2.265-5.878,4.945-11.603,8.306-16.918c-2.24,5.861-4.275,11.745-6.094,17.678
			C1295.498,1346.22,1293.919,1352.206,1292.865,1358.272z"/>
		<path fill="#FF5500" d="M1387.447,1190.406c0,0-58.715-14.163-86.763-54.059c0,0-0.487-36.33,53.411-28.09
			C1406.469,1116.266,1418.727,1167.23,1387.447,1190.406z"/>
	</g>
</g>
</svg>
