<?xml version="1.0" encoding="utf-8"?>
<!-- Generator: Adobe Illustrator 16.0.0, SVG Export Plug-In . SVG Version: 6.00 Build 0)  -->
<!DOCTYPE svg PUBLIC "-//W3C//DTD SVG 1.1//EN" "http://www.w3.org/Graphics/SVG/1.1/DTD/svg11.dtd">
<svg version="1.1" id="OBJECTS" xmlns="http://www.w3.org/2000/svg" xmlns:xlink="http://www.w3.org/1999/xlink" x="0px" y="0px"
	 width="750px" height="500px" viewBox="0 0 750 500" enable-background="new 0 0 750 500" xml:space="preserve">
<g>
	<g>
		<g>
			<g>
				
					<line fill="none" stroke="#DED8D5" stroke-width="1.9678" stroke-miterlimit="10" x1="125.977" y1="158.678" x2="625.346" y2="158.678"/>
				<path fill="none" stroke="#DED8D5" stroke-width="1.9678" stroke-miterlimit="10" d="M618.824,434.908H132.498
					c-3.602,0-6.521-2.92-6.521-6.521V132.464c0-3.602,2.92-6.521,6.521-6.521h486.326c3.602,0,6.521,2.92,6.521,6.521v295.922
					C625.346,431.988,622.426,434.908,618.824,434.908z"/>
				<g>
					<circle fill="#FFB1A5" cx="154.319" cy="142.645" r="4.568"/>
					<circle fill="#EAD254" cx="172.072" cy="142.645" r="4.568"/>
					<circle fill="#00857B" cx="189.824" cy="142.645" r="4.568"/>
				</g>
			</g>
		</g>
		<g>
			<g>
				<g>
					<g>
						<path fill="#EDEDED" d="M690.218,268.937H572.856c-3.31,0-5.991-2.683-5.991-5.991V154.404c0-3.309,2.682-5.991,5.991-5.991
							h117.361c3.309,0,5.991,2.682,5.991,5.991v108.542C696.209,266.254,693.526,268.937,690.218,268.937z"/>
						<path fill="none" stroke="#DED8D5" stroke-width="1.9678" stroke-miterlimit="10" d="M690.218,268.937H572.856
							c-3.31,0-5.991-2.683-5.991-5.991V154.404c0-3.309,2.682-5.991,5.991-5.991h117.361c3.309,0,5.991,2.682,5.991,5.991v108.542
							C696.209,266.254,693.526,268.937,690.218,268.937z"/>
					</g>
				</g>
			</g>
			<g>
				<g>
					<g>
						<g>
							<path fill="#C98BD2" d="M601.229,237.584h60.999c3.325,0,6.021-2.696,6.021-6.021v-49.991c0-3.326-2.696-6.021-6.021-6.021
								h-60.999c-3.325,0-6.021,2.696-6.021,6.021v49.991C595.208,234.888,597.904,237.584,601.229,237.584z"/>
						</g>
					</g>
				</g>
				<g>
					
						<polygon fill="none" stroke="#FFFFFF" stroke-width="1.6466" stroke-linecap="round" stroke-linejoin="round" stroke-miterlimit="10" points="
						648.391,216.881 619.84,216.881 614.684,216.881 614.684,194.276 648.391,194.276 648.391,199.927 					"/>
					
						<polyline fill="none" stroke="#FFFFFF" stroke-width="1.6466" stroke-linecap="round" stroke-linejoin="round" stroke-miterlimit="10" points="
						614.684,194.276 631.537,207.558 648.391,194.276 					"/>
				</g>
			</g>
		</g>
		<g>
			<g>
				<g>
					<g>
						<path fill="#EDEDED" d="M173.75,359.825H61.824c-3.156,0-5.714-2.559-5.714-5.714v-97.584c0-3.155,2.558-5.713,5.714-5.713
							H173.75c3.155,0,5.713,2.558,5.713,5.713v97.584C179.463,357.267,176.905,359.825,173.75,359.825z"/>
						<path fill="none" stroke="#DED8D5" stroke-width="1.9678" stroke-miterlimit="10" d="M173.75,359.825H61.824
							c-3.156,0-5.714-2.559-5.714-5.714v-97.584c0-3.155,2.558-5.713,5.714-5.713H173.75c3.155,0,5.713,2.558,5.713,5.713v97.584
							C179.463,357.267,176.905,359.825,173.75,359.825z"/>
					</g>
				</g>
			</g>
			<g>
				<path fill="#FFB1A5" d="M146.521,338.823H88.472c-3.667,0-6.64-2.973-6.64-6.64v-56.061c0-3.667,2.973-6.639,6.64-6.639h58.049
					c3.667,0,6.64,2.972,6.64,6.639v56.061C153.16,335.851,150.188,338.823,146.521,338.823z"/>
				<g>
					<path fill="#FFFFFF" d="M103.671,290.541c-7.832,7.832-7.832,20.688,0,28.521c7.832,7.832,20.688,7.832,28.52,0
						c7.832-7.832,7.832-20.688,0-28.521C124.359,282.709,111.503,282.709,103.671,290.541z M132.145,293.445h-6.427
						c-0.645-2.019-1.475-4.038-2.499-6.057C126.779,288.469,129.877,290.61,132.145,293.445z M110.526,303.622
						c0.003-2.606,0.311-5.213,0.956-7.818h12.9c0.645,2.605,0.952,5.212,0.955,7.818H110.526z M125.257,305.98
						c-0.178,2.605-0.65,5.212-1.386,7.818h-11.881c-0.736-2.605-1.208-5.212-1.386-7.818H125.257z M117.931,286.607
						c0.97,0,1.921,0.076,2.849,0.222c1.236,2.206,2.204,4.411,2.924,6.616h-11.546c0.72-2.205,1.688-4.41,2.924-6.616
						C116.01,286.684,116.962,286.607,117.931,286.607z M112.644,287.389c-1.024,2.019-1.854,4.038-2.499,6.057h-6.427
						C105.985,290.61,109.083,288.469,112.644,287.389z M102.115,295.804h7.361c-0.646,2.605-0.984,5.212-1.031,7.818h-8.669
						C99.958,300.791,100.786,298.136,102.115,295.804z M102.115,313.799c-1.33-2.332-2.158-4.987-2.339-7.818h8.705
						c0.127,2.605,0.541,5.212,1.228,7.818H102.115z M103.718,316.157h6.688c0.667,2.043,1.497,4.087,2.485,6.13
						C109.227,321.232,106.038,319.058,103.718,316.157z M117.931,322.995c-0.808,0-1.604-0.053-2.383-0.155
						c-1.112-2.228-2.059-4.455-2.82-6.683h10.407c-0.762,2.228-1.709,4.455-2.82,6.683
						C119.535,322.942,118.739,322.995,117.931,322.995z M122.972,322.287c0.989-2.043,1.819-4.086,2.485-6.13h6.688
						C129.825,319.058,126.636,321.232,122.972,322.287z M133.747,313.799h-7.594c0.687-2.606,1.101-5.212,1.228-7.818h8.705
						C135.905,308.812,135.077,311.466,133.747,313.799z M136.086,303.622h-8.669c-0.047-2.606-0.386-5.213-1.031-7.818h7.361
						C135.077,298.136,135.904,300.791,136.086,303.622z"/>
				</g>
			</g>
		</g>
	</g>
	<g>
		<path fill="#C98BD2" d="M167.079,97.432H65.68c-2.095,0-3.793-1.698-3.793-3.793l0,0c0-2.095,1.698-3.793,3.793-3.793h101.398
			c2.095,0,3.793,1.698,3.793,3.793l0,0C170.872,95.734,169.174,97.432,167.079,97.432z"/>
		<path fill="#56DFED" d="M694.35,345.116h-49.215c-2.095,0-3.793-1.698-3.793-3.793l0,0c0-2.095,1.698-3.793,3.793-3.793h49.215
			c2.095,0,3.793,1.698,3.793,3.793l0,0C698.143,343.418,696.444,345.116,694.35,345.116z"/>
		<path fill="#C98BD2" d="M659.881,388.993h-6.014c-1.58,0-2.861-1.281-2.861-2.861v-5.646c0-1.58,1.281-2.861,2.861-2.861h6.014
			c1.58,0,2.861,1.281,2.861,2.861v5.646C662.742,387.712,661.461,388.993,659.881,388.993z"/>
		<path fill="#FFB1A5" d="M89.833,415.271h-6.014c-1.58,0-2.861-1.281-2.861-2.861v-5.646c0-1.58,1.281-2.861,2.861-2.861h6.014
			c1.58,0,2.861,1.281,2.861,2.861v5.646C92.695,413.99,91.414,415.271,89.833,415.271z"/>
		<g>
			<g>
				<path fill="#FFB1A5" d="M550.108,93.514H450.025c-1.664,0-3.013-1.349-3.013-3.012V66.066c0-1.663,1.349-3.012,3.013-3.012
					h100.083c1.664,0,3.012,1.349,3.012,3.012v24.436C553.12,92.166,551.772,93.514,550.108,93.514z"/>
				<g>
					
						<line fill="none" stroke="#FFFFFF" stroke-width="1.1803" stroke-miterlimit="10" x1="461.466" y1="73.908" x2="532.644" y2="73.908"/>
					
						<line fill="none" stroke="#FFFFFF" stroke-width="1.1803" stroke-miterlimit="10" x1="461.466" y1="81.213" x2="490.457" y2="81.213"/>
				</g>
			</g>
			<polygon fill="#FFB1A5" points="458.57,90.068 458.57,101.939 473.5,90.068 			"/>
		</g>
		<g>
			<g>
				<g>
					<g>
						<g>
							<g>
								<path fill="#56DFED" d="M304.215,95.326h-48.448c-4.706,0-8.521-3.815-8.521-8.521V41.764c0-3.567,2.892-6.459,6.459-6.459
									h50.509c3.567,0,6.459,2.892,6.459,6.459v47.103C310.675,92.434,307.783,95.326,304.215,95.326z"/>
							</g>
						</g>
					</g>
				</g>
			</g>
			<g>
				<path fill="#FFFFFF" d="M293.763,69.753l-3.612-3.611c-0.645-0.709-1.483-1.097-2.322-1.097s-1.677,0.387-2.322,1.032
					l-2.064,2.064c-0.129-0.064-0.258-0.129-0.387-0.193c-0.258-0.129-0.452-0.193-0.645-0.322
					c-1.935-1.226-3.676-2.838-5.353-4.902c-0.774-0.967-1.354-1.87-1.677-2.644c0.516-0.452,0.967-0.968,1.419-1.419
					c0.193-0.193,0.387-0.387,0.58-0.581c0.709-0.709,1.097-1.548,1.097-2.386s-0.387-1.677-1.097-2.386l-1.806-1.806
					c-0.193-0.193-0.387-0.387-0.581-0.645c-0.387-0.387-0.838-0.838-1.225-1.226c-0.645-0.645-1.483-1.032-2.322-1.032
					s-1.612,0.322-2.322,1.032l-2.257,2.257c-0.838,0.838-1.354,1.935-1.483,3.16c-0.129,1.935,0.387,3.741,0.838,4.902
					c1.032,2.966,2.644,5.611,5.03,8.449c2.902,3.418,6.321,6.127,10.319,8.062c1.483,0.709,3.547,1.548,5.805,1.741
					c0.129,0,0.258,0,0.451,0c1.548,0,2.838-0.58,3.87-1.677c0,0,0,0,0.064-0.064c0.323-0.387,0.709-0.774,1.161-1.161
					c0.258-0.258,0.58-0.581,0.838-0.838C295.117,73.043,295.117,71.108,293.763,69.753z M292.279,73.107
					c-0.258,0.258-0.516,0.516-0.774,0.774c-0.452,0.387-0.838,0.838-1.29,1.29c-0.645,0.645-1.354,0.968-2.322,0.968
					c-0.129,0-0.193,0-0.322,0c-1.935-0.129-3.741-0.903-5.031-1.548c-3.676-1.806-6.901-4.321-9.609-7.546
					c-2.193-2.645-3.676-5.16-4.708-7.804c-0.645-1.548-0.903-2.773-0.773-3.999c0.064-0.709,0.322-1.354,0.903-1.87l2.193-2.193
					c0.193-0.193,0.516-0.451,0.903-0.451c0.387,0,0.645,0.193,0.903,0.451c0.387,0.387,0.774,0.774,1.161,1.161
					c0.194,0.194,0.387,0.452,0.645,0.645l1.806,1.806c0.193,0.193,0.451,0.581,0.451,0.903c0,0.387-0.258,0.709-0.451,0.903
					c-0.194,0.194-0.387,0.387-0.581,0.581c-0.581,0.581-1.097,1.096-1.612,1.612c0,0,0,0-0.064,0.064
					c-0.645,0.645-0.516,1.226-0.387,1.612v0.064c0.452,1.161,1.161,2.193,2.128,3.483c1.806,2.257,3.741,3.999,5.869,5.353
					c0.258,0.193,0.58,0.322,0.838,0.451c0.258,0.129,0.451,0.194,0.645,0.323l0.064,0.064c0.645,0.322,1.29,0.193,1.806-0.322
					l2.257-2.257c0.193-0.194,0.516-0.452,0.903-0.452c0.322,0,0.645,0.258,0.838,0.452l3.612,3.611
					C292.86,71.817,292.86,72.462,292.279,73.107z"/>
			</g>
		</g>
	</g>
</g>
<g>
	<defs>
		<rect id="SVGID_1_" x="171.975" y="101.417" width="459.273" height="332.684"/>
	</defs>
	<clipPath id="SVGID_2_">
		<use xlink:href="#SVGID_1_"  overflow="visible"/>
	</clipPath>
	<g clip-path="url(#SVGID_2_)">
		<g>
			<g>
				<path fill="#8E716C" d="M514.963,322.582l-36.502-4.86l0.285,3.625l-31.209,4.155c0,0-20.116,50.47-2.387,161.465h25.387
					l9.137-112.549h3.245l8.85,112.549h25.386C534.885,375.972,514.963,322.582,514.963,322.582z"/>
				
					<line fill="none" stroke="#282828" stroke-width="1.2333" stroke-linecap="round" stroke-linejoin="round" stroke-miterlimit="10" x1="468.066" y1="374.418" x2="494.554" y2="374.418"/>
			</g>
			<g>
				<g>
					<g>
						<g>
							<path fill="#FFB1A5" d="M536.279,269.341c-3.123-4.984-20.665-4.809-21.591-4.917c-4.742-0.556,3.041,37.181,12.906,70.167
								c1.891,6.324,8.85,9.618,14.927,7.041c0.065-0.027,0.131-0.056,0.197-0.083c4.807-2.037,7.543-7.141,6.575-12.271
								C544.603,304.387,539.891,275.104,536.279,269.341z"/>
						</g>
						<polygon fill="#F3978E" points="540.46,282.986 518.063,291.677 515.964,281.051 539.155,275.266 						"/>
						<path fill="#F3978E" d="M544.69,304.245c0,0-10.61,14.249-10.104,13.594s8.32-23.027,8.32-23.027L544.69,304.245z"/>
					</g>
					<g>
						<path fill="#FFB1A5" d="M559.86,285.093l-30.412,39.403c-3.993,5.173-2.718,12.653,2.764,16.212l0,0
							c5.473,3.552,12.812,1.685,15.92-4.051l25.314-46.705L559.86,285.093z"/>
						<g>
							<circle fill="#FFB1A5" cx="571.588" cy="283.273" r="12.545"/>
							<path fill="#FFB1A5" d="M580.734,275.732c0,0,3.434-3.564-2.657-6.063c-6.09-2.498-13.62-1.925-18.427,9.748L580.734,275.732
								z"/>
						</g>
						<g>
							<path fill="#372F5F" d="M587.044,250.831l12.734,5.521c0.708,0.308,0.966,1.147,0.575,1.877l-16.751,31.29
								c-0.391,0.729-1.281,1.071-1.989,0.764l-12.734-5.521c-0.709-0.308-0.966-1.147-0.576-1.876l16.752-31.291
								C585.445,250.866,586.336,250.524,587.044,250.831z"/>
							<path fill="#261B43" d="M585.828,250.277l12.733,5.521c0.709,0.308,0.967,1.147,0.576,1.876l-16.752,31.29
								c-0.39,0.729-1.28,1.071-1.989,0.765l-12.733-5.521c-0.709-0.307-0.967-1.146-0.576-1.876l16.752-31.29
								C584.229,250.312,585.119,249.97,585.828,250.277z"/>
							<polygon fill="#E6E6E6" points="584.392,253.461 595.58,258.313 581.928,283.813 570.739,278.963 							"/>
							<polygon fill="#FFFFFF" points="595.58,258.313 570.739,278.963 584.392,253.461 							"/>
						</g>
						<path fill="#FFB1A5" d="M574.422,268.631c0,0,2.835,0.553,5.394,2.003c1.128,0.639,1.705,1.939,1.393,3.197l0,0
							c-0.285,1.146-1.246,1.999-2.418,2.147l-6.62,0.835c0,0-3.454,5.953-7.967,6.621l4.14-10.452L574.422,268.631z"/>
					</g>
				</g>
				<g>
					<g>
						<path fill="#56DFED" d="M489.877,219.721c-0.73-0.004,46.946,6.597,54.813,60.955l-24.74,3.79l-4.987,41.036h-69.017
							l-13.702-75.819c0,0,15.291-21.914,43.682-29.962H489.877z"/>
						
							<line fill="none" stroke="#282828" stroke-width="1.2333" stroke-linecap="round" stroke-linejoin="round" stroke-miterlimit="10" x1="519.95" y1="284.466" x2="522.098" y2="260.732"/>
					</g>
				</g>
			</g>
			<g>
				<path fill="#FFB1A5" d="M494.408,220.498v-18.881h-22.126v19.103c-1.132,0.338-3.018,1.021-5.944,2.411l17.257,10.28
					l17.643-10.28C501.237,223.13,498.437,221.501,494.408,220.498z"/>
				<path fill="#282828" d="M472.077,203.924c0,0,3.974,10.551,14.581,9.64c9.75-0.837,8.198-15.459,8.198-15.459L472.077,203.924z"
					/>
				<g>
					<path fill="#F3978E" d="M462.428,189.891c-3.469,3.146-11.224-8.786-7.872-12.136c3.351-3.35,5.907,1.906,5.907,1.906
						l1.496,3.562l1.129,4.824l0.268,1.263L462.428,189.891z"/>
					<g>
						<g>
							
								<path fill="none" stroke="#282828" stroke-width="0.9928" stroke-linecap="round" stroke-linejoin="round" stroke-miterlimit="10" d="
								M456.175,181.982c0,0,2.625-1.181,4.957,2.625"/>
						</g>
					</g>
				</g>
				<g>
					<path fill="#F3978E" d="M503.44,189.529c3.19,3.428,11.926-7.805,8.87-11.427c-3.056-3.621-6.047,1.399-6.047,1.399
						l-1.792,3.422l-1.533,4.711l-0.374,1.236L503.44,189.529z"/>
					<g>
						<g>
							
								<path fill="none" stroke="#282828" stroke-width="0.9928" stroke-linecap="round" stroke-linejoin="round" stroke-miterlimit="10" d="
								M510.34,182.177c0,0-2.516-1.398-5.162,2.196"/>
						</g>
					</g>
				</g>
				<g>
					<path fill="#282828" d="M456.345,166.374c0,15.794,12.042,23.284,26.896,23.284c14.854,0,26.896-7.489,26.896-23.284
						s-12.042-26.539-26.896-26.539C468.387,139.834,456.345,150.579,456.345,166.374z"/>
				</g>
				<path fill="#FFB1A5" d="M460,167.472c0,9.696,1.37,18.063,2.737,24.001c1.339,5.814,5.106,9.877,10.431,13.147l0.97,0.596
					c5.634,3.46,12.912,3.541,18.632,0.206l0,0c5.769-3.363,9.808-7.797,11.051-14.036c2.261-11.347,2.508-23.915,2.508-23.915
					s2.151-24.477-22.833-24.001C458.51,143.947,460,167.472,460,167.472z"/>
				<g>
					
						<path fill="none" stroke="#282828" stroke-width="1.2316" stroke-linecap="round" stroke-linejoin="round" stroke-miterlimit="10" d="
						M481.648,181.441v3.387c0,0.201,0.038,0.393,0.109,0.569c0.277,0.692,1.076,1.024,1.799,0.832l1.553-0.412"/>
					<path fill="#282828" d="M477.676,168.307l-12.417,2.91c0,0,0.564-3.16,5.644-4.309
						C475.982,165.76,477.676,168.307,477.676,168.307z"/>
					<path fill="#282828" d="M488.696,168.307l11.989,2.91c0,0-0.545-3.16-5.45-4.309
						C490.331,165.76,488.696,168.307,488.696,168.307z"/>
					<ellipse fill="#282828" cx="472.958" cy="177.428" rx="2.094" ry="2.088"/>
					<ellipse fill="#282828" cx="492.81" cy="177.428" rx="2.094" ry="2.088"/>
					<path fill="#FFFFFF" d="M475.052,190.171H491.2C491.2,190.171,484.043,198.878,475.052,190.171z"/>
					<g>
						<circle fill="none" stroke="#C98BD2" stroke-width="1.3423" stroke-miterlimit="10" cx="472.077" cy="178.239" r="8.905"/>
						<circle fill="none" stroke="#C98BD2" stroke-width="1.3423" stroke-miterlimit="10" cx="493.953" cy="178.239" r="8.905"/>
						<path fill="none" stroke="#C98BD2" stroke-width="1.3423" stroke-miterlimit="10" d="M480.981,178.239
							c0,0,2.109-1.969,4.066,0"/>
						
							<line fill="none" stroke="#C98BD2" stroke-width="1.3423" stroke-miterlimit="10" x1="463.172" y1="178.239" x2="460.367" y2="178.168"/>
						
							<line fill="none" stroke="#C98BD2" stroke-width="1.3423" stroke-miterlimit="10" x1="502.857" y1="178.239" x2="505.68" y2="178.168"/>
					</g>
				</g>
				<path fill="#282828" d="M506.007,175.587c0,0-9.989-13.504-7.685-27.185c0,0,7.414,3.731,9.345,13.361
					C509.599,171.394,506.007,175.587,506.007,175.587z"/>
				<path fill="#282828" d="M459.983,176.502c0,0,11.604-15.338,9.3-29.019c0,0-8.049,4.649-9.979,14.28
					S459.983,176.502,459.983,176.502z"/>
				<path fill="#282828" d="M505.169,153.79c0,0-12.826,14.042-47.92,11.638c0,0,5.374-20.605,22.381-22.8
					C479.63,142.628,499.268,140.283,505.169,153.79z"/>
				<circle fill="#282828" cx="504.269" cy="137.375" r="16.756"/>
			</g>
		</g>
		<g>
			<path fill="#282828" d="M299.725,322.544l-31.208-4.155l0.285-3.625l-36.501,4.86c0,0-19.922,53.389-2.192,164.385h25.387
				l8.85-112.549h3.245l9.137,112.549h25.387C319.841,373.013,299.725,322.544,299.725,322.544z"/>
			<g>
				<path fill="#282828" d="M297.235,170.7c-4.224-4.969-7.606-10.766-10.48-18.901c-3.086-8.732-13.189-5.183-13.189-5.183
					s-8.419-10.831-21.088-7.058c-12.669,3.772-17.071,12.788-17.329,23.506c-0.258,10.718-8.688,12.395-15.181,24.794
					c-11.46,21.89,7.835,40.327,42.959,35.212l0.047-0.341c3.458,1.05,7.698,1.509,12.873,1.202
					C318.043,221.425,313.971,190.389,297.235,170.7z"/>
				<g>
					<path fill="#F3978E" d="M283.421,186.933c3.468,3.146,11.223-8.786,7.872-12.136c-3.351-3.35-5.907,1.906-5.907,1.906
						l-1.496,3.562l-1.129,4.824l-0.269,1.263L283.421,186.933z"/>
					<g>
						<g>
							
								<path fill="none" stroke="#282828" stroke-width="0.9928" stroke-linecap="round" stroke-linejoin="round" stroke-miterlimit="10" d="
								M289.673,179.023c0,0-2.625-1.181-4.958,2.625"/>
						</g>
					</g>
				</g>
				<g>
					<path fill="#F3978E" d="M242.408,186.571c-3.19,3.428-11.926-7.805-8.87-11.426c3.056-3.621,6.047,1.399,6.047,1.399
						l1.792,3.422l1.533,4.711l0.374,1.236L242.408,186.571z"/>
					<g>
						<g>
							
								<path fill="none" stroke="#282828" stroke-width="0.9928" stroke-linecap="round" stroke-linejoin="round" stroke-miterlimit="10" d="
								M235.508,179.219c0,0,2.516-1.399,5.162,2.196"/>
						</g>
					</g>
				</g>
				<g>
					<path fill="#282828" d="M289.503,163.415c0,15.794-12.042,23.284-26.896,23.284c-14.854,0-26.896-7.489-26.896-23.284
						c0-15.794,12.042-26.539,26.896-26.539C277.461,136.876,289.503,147.621,289.503,163.415z"/>
				</g>
				<rect x="251.44" y="198.659" fill="#FFB1A5" width="22.126" height="28.651"/>
				<path fill="#282828" d="M248.211,196.872c0,0,6.159,12.292,13.736,14.211c2.024,0.513,4.186,0.337,6.138-0.354
					c2.852-1.011,6.468-5.263,7.083-9.968l0.285-2.688C275.454,198.073,261.971,205.414,248.211,196.872z"/>
				<path fill="#FFB1A5" d="M285.848,164.514c0,9.696-1.37,18.063-2.737,24.001c-1.339,5.814-5.106,9.877-10.431,13.147l-0.97,0.596
					c-5.633,3.46-12.912,3.541-18.632,0.207l0,0c-5.769-3.363-9.808-7.797-11.051-14.036c-2.261-11.347-2.508-23.915-2.508-23.915
					s-2.151-24.477,22.834-24.001C287.338,140.988,285.848,164.514,285.848,164.514z"/>
				<g>
					
						<path fill="none" stroke="#282828" stroke-width="1.2298" stroke-linecap="round" stroke-linejoin="round" stroke-miterlimit="10" d="
						M260.938,179.808v2.012c0,0.2,0.039,0.392,0.109,0.567c0.278,0.69,1.077,1.021,1.799,0.83l1.553-0.411"/>
					<path fill="#282828" d="M266.144,166.54l13.292,3.146c0,0-0.604-3.416-6.042-4.657
						C267.957,163.787,266.144,166.54,266.144,166.54z"/>
					<path fill="#282828" d="M259.165,166.54l-13.463,3.146c0,0,0.612-3.416,6.12-4.657
						C257.329,163.787,259.165,166.54,259.165,166.54z"/>
					<ellipse fill="#282828" cx="252.248" cy="174.79" rx="2.094" ry="2.083"/>
					<ellipse fill="#282828" cx="272.1" cy="174.79" rx="2.094" ry="2.083"/>
					<path fill="#FFFFFF" d="M252.959,186.699h18.379c0,0-1.297,5.05-9.631,5.05C255.36,191.749,252.959,186.699,252.959,186.699z"
						/>
				</g>
				<path fill="#282828" d="M239.841,172.629c0,0,9.989-13.505,7.685-27.186c0,0-7.414,3.731-9.345,13.361
					C236.25,168.435,239.841,172.629,239.841,172.629z"/>
				<path fill="#282828" d="M285.865,172.179c0,0-11.604-13.973-9.3-27.654c0,0,8.048,4.65,9.979,14.28
					C288.475,168.435,285.865,172.179,285.865,172.179z"/>
				<path fill="#282828" d="M240.679,150.832c0,0,11.462,15.406,46.555,13.003c0,0-4.009-21.97-21.016-24.165
					C266.218,139.67,246.581,137.325,240.679,150.832z"/>
			</g>
			<g>
				<g>
					<g>
						<path fill="#FFB1A5" d="M208.689,390.313c-0.51,0.803,29.208-129.305,20.385-127.338c-0.805,0.179-16.258,1.614-18.555,6.284
							c-6.657,13.536-11.432,120.066-11.432,120.066L208.689,390.313z"/>
						<path fill="#FFB1A5" d="M199.087,389.325c0,0-4.79,22.226,13.318,24.655c1.193,0.16,2.346-0.545,2.739-1.683l0.052-0.15
							c0.433-1.256-0.196-2.603-1.409-3.145c-2.952-1.32-7.531-4.655-5.259-12.229c0,0,2.617-0.321,4.062,4.561
							c0.372,1.257,1.781,1.888,2.951,1.299l0,0c0.799-0.402,1.248-1.262,1.136-2.148c-0.434-3.42-2.155-11.651-8.755-13.86
							L199.087,389.325z"/>
					</g>
					<path fill="#F3978E" d="M205.181,300.521c0,0,17.123,24.114,17.213,23.647c0.09-0.466,5.988-33.855,5.988-33.855l-20.778-9
						L205.181,300.521z"/>
				</g>
				<g>
					<path fill="#00857B" d="M252.757,222.593c0.73-0.004-42.318,0.767-50.186,55.124l24.74,3.79l4.988,41.037h69.016l13.702-75.82
						c0,0-9.741-16.427-38.132-24.475L252.757,222.593z"/>
					<path fill="#FFB1A5" d="M231.716,229.164c0,0,6.083,8.076,31.01,8.076c24.695,0,31.011-8.5,31.011-8.5
						s-14.558-8.134-31.451-10.765C262.286,217.976,247.202,220.663,231.716,229.164z"/>
				</g>
			</g>
		</g>
		<g>
			<g>
				<g>
					<polygon fill="#005683" points="316.414,401.367 316.474,509.772 370.103,509.772 374.224,401.367 					"/>
					<polygon fill="#005683" points="432.855,401.367 432.797,509.772 379.168,509.772 375.046,401.367 					"/>
					<rect x="348.117" y="401.367" fill="#005683" width="55.45" height="37.661"/>
				</g>
				
					<line fill="none" stroke="#282828" stroke-width="1.3968" stroke-linecap="round" stroke-linejoin="round" stroke-miterlimit="10" x1="355.862" y1="439.028" x2="394.107" y2="439.028"/>
			</g>
			<g>
				<g>
					<g>
						<path fill="#FFB1A5" d="M466.735,306.763c3.325,36.733-0.183,63.499,0.787,131.092l-32.008,1.341l-4.77-126.522
							L466.735,306.763z"/>
						<path fill="#F3978E" d="M434.693,335.428c0,0,19.821-1.814,33.373-10.754l-0.357-7.867l-33.027,4.498L434.693,335.428z"/>
					</g>
					<path fill="#C98BD2" d="M402.894,222.188c0,0,62.96,15.833,74.367,95.747c0,0-30.814,13.359-61.694,7.613l6.947-26.729
						L402.894,222.188z"/>
				</g>
				<g>
					<g>
						<path fill="#FFB1A5" d="M214.833,255.417l46.877,55.361l-14.345,40.398c0,0-35.63-49.537-51.64-87.826L214.833,255.417z"/>
						<g>
							<g>
								<g>
									<path fill="#FFB1A5" d="M216.375,257.415c0,0-16.461,9.3-20.648,5.936c-7.317-5.879-13.364-27.399-13.364-27.399
										s30.782-11.605,30.493-11.151C212.566,225.254,216.375,257.415,216.375,257.415z"/>
									<path fill="#FFB1A5" d="M216.375,257.415c-0.292-1.657,6.104-19.535,8.296-26.239c0.529-1.617-0.586-3.39-2.341-3.726l0,0
										c-1.143-0.219-2.952-0.078-3.808,1.561l-7.721,13.196L216.375,257.415z"/>
									<path fill="#FFB1A5" d="M215.81,238.088l-5.301-26.373c-0.314-1.755-2.078-2.964-3.837-2.632l0,0
										c-1.522,0.288-2.526,1.644-2.347,3.171l2.311,19.638L215.81,238.088z"/>
									<path fill="#FFB1A5" d="M205.269,228.361l-7.199-18.833c-0.595-1.649-2.451-2.563-4.09-2.014l0,0
										c-1.421,0.476-2.218,1.908-1.882,3.378l5.341,21.762L205.269,228.361z"/>
									<path fill="#FFB1A5" d="M197.532,233.914l-9.108-18.505c-0.836-1.717-2.916-2.515-4.623-1.772l0,0
										c-1.604,0.697-2.313,2.514-1.627,4.166l7.261,17.47L197.532,233.914z"/>
									<path fill="#FFB1A5" d="M182.363,235.952l-7.147-11.336c-0.592-1.333-0.045-2.829,1.25-3.42l0,0
										c1.239-0.566,2.77-0.121,3.571,1.039l9.398,13.039L182.363,235.952z"/>
								</g>
							</g>
							
								<path fill="none" stroke="#282828" stroke-width="1.5317" stroke-linecap="round" stroke-linejoin="round" stroke-miterlimit="10" d="
								M214.37,236.107c0,0-10.733-1.126-11.835,13.177"/>
						</g>
					</g>
					<g>
						<g>
							<path fill="#FFB1A5" d="M237.859,332.281c0,0,8.817,30.514,26.387,26.457c17.569-4.057,44.953-41.582,44.953-41.582
								l-6.129-64.074l-49.313,60.693L237.859,332.281z"/>
							<path fill="#F3978E" d="M269.051,294.923c0,0,16.649,25.112,30.851,33.968l9.296-11.734l-35.861-27.741L269.051,294.923z"/>
						</g>
						<path fill="#C98BD2" d="M341.893,220.803c0,0-48.88,11.018-74.928,67.826c0,0,15.738,23.714,40.969,34.254l16.892-20.694
							L341.893,220.803z"/>
					</g>
				</g>
				<g>
					<path fill="#C98BD2" d="M341.893,220.627c-19.094,9.794-31.098,22.783-31.098,22.783l3.768,166.06H434.89l-0.391-165.203
						c0,0-15.167-14.842-31.605-22.078C388.932,216.042,355.467,213.665,341.893,220.627z"/>
					
						<path fill="none" stroke="#282828" stroke-width="1.3968" stroke-linecap="round" stroke-linejoin="round" stroke-miterlimit="10" d="
						M398.83,301.544L398.83,301.544c-9.243,0-16.736-7.493-16.736-16.736v-16.736h33.473v16.736
						C415.566,294.051,408.073,301.544,398.83,301.544z"/>
					
						<line fill="none" stroke="#282828" stroke-width="1.3968" stroke-linecap="round" stroke-linejoin="round" stroke-miterlimit="10" x1="434.693" y1="326.166" x2="436.254" y2="271.843"/>
					
						<line fill="none" stroke="#282828" stroke-width="1.3968" stroke-linecap="round" stroke-linejoin="round" stroke-miterlimit="10" x1="312.644" y1="317.112" x2="310.044" y2="270.023"/>
				</g>
			</g>
			<g>
				<path fill="#282828" d="M343.303,159.974l-5.016-24.815c-0.282-2.021-1.066-5.141-0.106-8.071
					c1.588-4.849,7.427-14.162,17.407-9.898l2.157,9.825c0,0-10.364,2.092-14.521,15.65L343.303,159.974z"/>
				<path fill="#282828" d="M354.854,122.313c-0.182,3.261-3.06,17.527-13.177,22.724
					C341.676,145.037,332.814,126.031,354.854,122.313z"/>
				<path fill="#FFB1A5" d="M390.347,216.058L390.347,216.058v-42.136h-38.844v42.136l-11.563,5.271c0,0,2.712,17.464,31.393,17.851
					s31.562-16.992,31.562-16.992L390.347,216.058z"/>
				<path fill="#282828" d="M355.588,117.19c0,0,7.129-18.806,29.112-8.808c13.306,6.051,17.032,14.165,18.617,19.913
					c0.527,1.91,0.737,4.918,0.594,6.705l-5.317,24.974l-20.76-34.552l-20.088,1.593L355.588,117.19z"/>
				<g>
					<path fill="#F3978E" d="M398.594,159.974c0,0,2.619-4.166,8.021-2.117s2.958,15.166-5.145,16.838c0,0-2.904,0.633-5.182-1.355
						C396.288,173.34,398.28,163.651,398.594,159.974z"/>
					<g>
						<g>
							
								<path fill="none" stroke="#282828" stroke-width="1.3968" stroke-linecap="round" stroke-linejoin="round" stroke-miterlimit="10" d="
								M405.543,162.485c0,0-4.524-1.51-7.736,5.153"/>
						</g>
					</g>
				</g>
				<g>
					<path fill="#F3978E" d="M343.303,159.974c0,0-2.619-4.166-8.02-2.117s-2.958,15.166,5.144,16.838c0,0,2.904,0.633,5.182-1.355
						C345.608,173.34,343.616,163.651,343.303,159.974z"/>
					<g>
						<g>
							
								<path fill="none" stroke="#282828" stroke-width="1.3968" stroke-linecap="round" stroke-linejoin="round" stroke-miterlimit="10" d="
								M336.354,162.485c0,0,4.524-1.51,7.736,5.153"/>
						</g>
					</g>
				</g>
				<path fill="#FFB1A5" d="M399.135,147.526c0.003,7.908-0.773,24.452-5.635,34.271c-4.564,9.22-12.114,14.182-22.012,14.477
					s-17.271-3.519-23.18-15.485s-5.627-33.117-5.627-33.117s0-28.25,27.92-28.25C400.008,119.424,399.135,147.526,399.135,147.526z
					"/>
				<path fill="#282828" d="M351.794,186.688c0,0,3.253,16.505,17.618,18.402c16.532,2.182,20.935-17.982,20.935-17.982
					s-7.306,9.154-18.858,9.168C358.604,196.291,351.794,186.688,351.794,186.688z"/>
				<g>
					
						<path fill="none" stroke="#282828" stroke-width="1.3968" stroke-linecap="round" stroke-linejoin="round" stroke-miterlimit="10" d="
						M368.917,159.254v6.538c0,0.281,0.054,0.55,0.153,0.796c0.387,0.969,1.502,1.433,2.51,1.165l2.167-0.577"/>
					<circle fill="#282828" cx="358.13" cy="156.132" r="2.542"/>
					<circle fill="#282828" cx="381.96" cy="156.132" r="2.542"/>
					<path fill="#282828" d="M375.454,143.487l17.089,4.415c0,0-0.776-4.793-7.768-6.535S375.454,143.487,375.454,143.487z"/>
					<path fill="#282828" d="M364.835,143.487l-17.089,4.415c0,0,0.777-4.793,7.768-6.535
						C362.505,139.625,364.835,143.487,364.835,143.487z"/>
					
						<path fill="none" stroke="#282828" stroke-width="1.3968" stroke-linecap="round" stroke-linejoin="round" stroke-miterlimit="10" d="
						M361.437,172.379c0,0,2.521,1.932,9.15,1.932c6.028,0,9.794-1.932,9.794-1.932"/>
					<g>
						<circle fill="none" stroke="#FFFFFF" stroke-width="1.9514" stroke-miterlimit="10" cx="357.446" cy="156.875" r="10.8"/>
						<circle fill="none" stroke="#FFFFFF" stroke-width="1.9514" stroke-miterlimit="10" cx="383.978" cy="156.875" r="10.8"/>
						<path fill="none" stroke="#FFFFFF" stroke-width="1.9514" stroke-miterlimit="10" d="M368.246,156.875
							c0,0,2.558-2.387,4.932,0"/>
						
							<line fill="none" stroke="#FFFFFF" stroke-width="1.9514" stroke-miterlimit="10" x1="346.646" y1="156.875" x2="343.024" y2="156.783"/>
						
							<line fill="none" stroke="#FFFFFF" stroke-width="1.9514" stroke-miterlimit="10" x1="394.778" y1="156.875" x2="398.821" y2="156.809"/>
					</g>
				</g>
				<path fill="#282828" d="M351.794,122.958c0,0,5.188,14.735,28.591,14.283c15.903-0.307,19.703,11.201,19.703,11.201
					s-2.768-25.727-3.495-25.484s-24.199-6.263-24.199-6.263L351.794,122.958z"/>
			</g>
		</g>
	</g>
</g>
</svg>
