<?xml version="1.0" encoding="utf-8"?>
<!-- Generator: Adobe Illustrator 16.0.0, SVG Export Plug-In . SVG Version: 6.00 Build 0)  -->
<!DOCTYPE svg PUBLIC "-//W3C//DTD SVG 1.1//EN" "http://www.w3.org/Graphics/SVG/1.1/DTD/svg11.dtd">
<svg version="1.1" xmlns="http://www.w3.org/2000/svg" xmlns:xlink="http://www.w3.org/1999/xlink" x="0px" y="0px" width="500px"
	 height="500px" viewBox="0 0 500 500" enable-background="new 0 0 500 500" xml:space="preserve">
<g id="BACKGROUND" display="none">
	<rect display="inline" fill="#FFFFFF" width="500" height="500"/>
	<path display="inline" fill="#DDECFF" d="M107.463,384.262c0,0-54.621-38.896-70.345-105.104
		c-15.725-66.207,8.275-146.482,53.793-187.034c45.517-40.552,127.448-13.242,163.862,20.689
		c36.413,33.931,36.413,33.931,36.413,33.931s34.759,19.034,80.276,17.379c45.517-1.655,86.069,60.414,96.827,109.241
		c10.759,48.827-14.896,113.379-14.896,113.379L107.463,384.262z"/>
	<path display="inline" fill="#DDECFF" d="M82.636,394.193c0,0-38.069-20.689-48-68.689s33.104-91.862,37.241-115.862
		c4.138-24-4.965-53.793,33.104-76.965c38.069-23.173,105.931-14.897,131.586-20.69s55.448-45.517,106.759-36.414
		c51.31,9.104,100.965,36.414,103.448,96c2.482,59.586-16.552,61.241,2.482,93.518c19.034,32.275,26.482,54.62,17.379,87.724
		c-9.103,33.104-28.138,42.207-28.138,42.207L82.636,394.193z"/>
	<path display="inline" fill="#DDECFF" d="M162.125,383.435c-2.368-2.483-37.101-72,1.579-135.725
		c38.679-63.724,135.772-56.276,174.451-31.448c38.68,24.828,57.625,57.104,61.571,91.034c3.947,33.932-22.103,86.896-22.103,86.896
		L162.125,383.435z"/>
</g>
<g id="OBJECTS">
	<g>
		<g>
			<path fill="#60A8FF" d="M434.463,266.4h-44.621c-2.761,0-5-2.238-5-5v-22.275c0-2.762,2.239-5,5-5h44.621c2.762,0,5,2.238,5,5
				V261.4C439.463,264.162,437.225,266.4,434.463,266.4z"/>
			<polygon fill="#60A8FF" points="412.153,279.021 419.224,262.262 405.082,262.262 			"/>
		</g>
		<g>
			<g>
				<g>
					<polygon fill="#223A7A" points="411.984,244.72 424.757,244.72 424.757,246.589 431.019,242.979 424.757,239.369 
						424.757,241.237 411.984,241.237 					"/>
				</g>
				<g>
					<polygon fill="#FFFFFF" points="431.019,252.065 418.246,252.065 418.246,250.196 411.984,253.806 418.246,257.417 
						418.246,255.547 431.019,255.547 					"/>
				</g>
			</g>
			<g>
				<path fill="#223A7A" d="M404.144,255.35l-0.608,0.222c0,0-1.895-2.164-2.879-4.521c-0.983-2.356-1.018-5.234-1.018-5.234
					l0.444-0.186l-2.701-6.464c-0.481,0.376-0.94,0.86-1.312,1.487c-1.528,2.583-1.377,6.547,0.16,10.419
					c1.538,3.872,3.182,7.326,6.182,9.498c1.771,1.282,3.287,1.507,4.465,1.32L404.144,255.35z"/>
				<path fill="#223A7A" d="M406.083,254.589l-0.84,0.305l2.765,6.618c0.313-0.102,0.593-0.228,0.836-0.361
					c0.714-0.391,1.027-1.25,0.727-2.006l-1.444-3.639C407.806,254.699,406.901,254.292,406.083,254.589z"/>
				<path fill="#223A7A" d="M399.494,238.034c-0.34,0.122-0.71,0.288-1.082,0.508l2.758,6.602l0.929-0.388
					c0.806-0.336,1.195-1.254,0.878-2.067l-1.45-3.722C401.211,238.158,400.31,237.739,399.494,238.034z"/>
			</g>
		</g>
	</g>
	<g>
		<path fill="#1C83FF" d="M149.222,372.262V297.78c0,0-0.828-20.069,9.724-25.862c10.551-5.793,55.034-2.689,55.034-2.689v103.034
			H149.222z"/>
	</g>
	<g>
		<g>
			<path fill="#FF9D8C" d="M227.877,199.503c0,0-2.689,22.552-3.724,24.414c-1.034,1.862-1.034,1.862-1.034,1.862l-5.173,3.518
				c0,0,9.931,14.069,22.138,16.345c12.207,2.276,11.172-4.965,11.172-4.965l-1.862-3.931l2.483-21.518
				C251.877,215.228,229.739,205.09,227.877,199.503z"/>
		</g>
		<path fill="#FFFFFF" d="M211.532,231.159l8.069-3.517c0,0,5.172,8.483,17.172,13.448s12.207,2.069,12.828,0
			s-0.207-4.345-0.207-4.345l0.888-7.244l4.798,1.6l16.658,134.748l-42.827,2.069L211.532,231.159z"/>
		<g>
			<path fill="#223A7A" d="M251.049,229.642c0,0,2.896,6.689,5.586,22.414c2.69,15.725,5.173,42.207,5.794,60.414
				c0.62,18.207,1.034,59.793,1.034,59.793s53.379,0,54,0c0.62,0,4.345-20.482,4.345-20.482s-23.586-20.207-24.827-23.518
				c-0.828-2.207-0.414-43.104-3.932-61.931c-3.517-18.828-8.068-22.621-17.586-27.311
				C265.627,234.174,251.049,229.642,251.049,229.642z"/>
		</g>
		<g>
			<path fill="#8593B6" d="M279.187,348.555c-0.276,0-0.5-0.224-0.5-0.5c0-1.479-0.263-22.496-0.517-42.821
				c-0.255-20.328-0.518-41.348-0.518-42.834c0-0.276,0.224-0.5,0.5-0.5s0.5,0.224,0.5,0.5c0,1.479,0.263,22.496,0.517,42.821
				c0.255,20.328,0.518,41.348,0.518,42.834C279.687,348.332,279.463,348.555,279.187,348.555z"/>
		</g>
		<g>
			<path fill="#223A7A" d="M171.601,343.503l-0.414,28.759h62.896c0,0,2.689-24.414,1.655-26.689
				C234.705,343.296,171.601,343.503,171.601,343.503z"/>
		</g>
		<g>
			<path fill="#8E9BBB" d="M241.601,223.297c2.563,2.066,6.069,3.724,8.8,4.727l1.477-12.796c0,0-16.629-7.617-22.271-13.285
				C230.785,208.382,233.685,216.915,241.601,223.297z"/>
		</g>
		<g>
			<path fill="#FF9D8C" d="M271.326,157.503c0,0,4.345,7.448,5.172,16.552c0.828,9.104,0,32.483-7.448,42.414
				s-22.965,7.034-30,1.034c-6.456-5.506-12.828-11.586-14.482-23.586c-1.655-12,3.517-34.759,18.207-39.517
				C257.463,149.642,271.326,157.503,271.326,157.503z"/>
		</g>
		<g>
			<g>
				<path fill="#FF9D8C" d="M289.99,359.255c0,0-0.729,0-1.84-0.03c-0.26-0.01-0.55,0-0.851-0.01c-1.069-0.03-2.369-0.06-3.68-0.1
					c-0.29-0.011-0.59-0.021-0.88-0.03c-1.3-0.03-2.41,0.13-3.45,0.07h-0.029c-0.221-0.011-0.54,0.02-0.801,0.029
					c-0.13,0.011-0.25,0.021-0.33,0.011c-0.6-0.11-0.72-0.25-1.369-0.54c-0.841-0.38-12.211-2.921-21.461-2.86
					c-9.24,0.04-17.53,0.67-18.879-0.46c-1.36-1.15-2.18-12.76,5.71-13.521l9.7,3.681c0,0,22.15-2.63,30.271,3.359
					C290.24,354.845,289.99,359.255,289.99,359.255z"/>
			</g>
			<g>
				<g>
					<path fill="#223A7A" d="M279.26,359.156c-0.221-0.011-0.54,0.02-0.801,0.029c-0.199-0.319-0.62-0.899-0.85-1.14
						c-2.5-2.55-8.54-4.2-10.73-4.73c-0.199-0.05-0.33-0.25-0.279-0.449c0.04-0.2,0.25-0.32,0.46-0.28
						c3.189,0.77,9.96,2.74,11.88,5.97C279,358.645,279.16,358.956,279.26,359.156z"/>
				</g>
			</g>
			<g>
				<g>
					<path fill="#223A7A" d="M283.622,359.115c-0.289-0.007-0.589-0.015-0.879-0.031c-2.729-4.979-7.196-6.407-12.715-8.183
						l-0.327-0.108c-0.188-0.064-0.304-0.277-0.238-0.476c0.064-0.188,0.268-0.304,0.476-0.238l0.317,0.107
						C276.091,352.059,280.787,353.564,283.622,359.115z"/>
				</g>
			</g>
			<g>
				<g>
					<path fill="#223A7A" d="M288.151,359.225c-0.26-0.007-0.55-0.004-0.851-0.011c-1.655-3.481-7.135-9.307-14.384-10.664
						c-0.209-0.035-0.345-0.229-0.31-0.438c0.045-0.199,0.238-0.334,0.438-0.3C280.512,349.216,286.536,355.315,288.151,359.225z"/>
				</g>
			</g>
		</g>
		<g>
			<path fill="#223A7A" d="M229.532,183.676c0,0,4.552-2.173,7.759-8.276c3.207-6.104,2.793-11.586,2.793-11.586
				s5.793-0.931,14.483,1.655c8.689,2.586,19.034,6.104,27.724,1.138c8.69-4.965,8.69-12.931,4.448-16.241
				c-4.75-3.708-14.172-1.448-14.172-1.448s3.62-3.517,1.655-5.586c-1.966-2.069-9.104,0.621-9.104,0.621s-8.689-6.931-25.138-6.103
				c-16.448,0.828-24.31,12.31-25.241,25.138s3.724,25.655,3.724,25.655L229.532,183.676z"/>
		</g>
		<g>
			<g>
				<path fill="#8E9BBB" d="M262.902,186.785c-0.932,2.298-0.909,4.966-1.144,7.405c-0.183,1.897-0.531,4.109,1.207,5.39
					c0.83,0.612,4.758,2.262,2.737,3.599c-0.77,0.51-2.061,0.371-2.937,0.33c-0.604-0.028-1.214-0.053-1.817-0.098
					c-0.648-0.049-1.284-0.244-1.934-0.248c-0.381-0.002-0.499,0.505-0.189,0.699c1.045,0.654,2.576,0.855,3.794,0.903
					s2.044-0.009,3.141-0.553c0.675-0.334,1.328-0.808,1.435-1.609c0.121-0.902-0.556-1.711-1.235-2.215
					c-0.782-0.58-1.742-0.85-2.532-1.416c-1.096-0.784-1.005-2.105-0.928-3.328c0.185-2.942,0.861-5.832,1.124-8.761
					C263.664,186.436,263.044,186.436,262.902,186.785L262.902,186.785z"/>
			</g>
		</g>
		<g>
			
				<ellipse transform="matrix(0.9847 0.1743 -0.1743 0.9847 37.7954 -43.934)" fill="#223A7A" cx="269.084" cy="193.262" rx="2.31" ry="3.207"/>
		</g>
		<g>
			
				<ellipse transform="matrix(0.9891 0.1472 -0.1472 0.9891 31.0049 -35.1597)" fill="#223A7A" cx="253.073" cy="191.918" rx="2.481" ry="3.444"/>
		</g>
		<g>
			<g>
				<path fill="#223A7A" d="M267.673,186.476c0.967,0.163,1.942-0.003,2.918,0.065c0.234,0.016,0.466,0.051,0.7,0.073
					c0.166,0.016-0.311-0.049-0.079-0.011c0.05,0.008,0.1,0.016,0.149,0.024c0.122,0.021,0.244,0.047,0.364,0.076
					c0.208,0.05,0.409,0.129,0.617,0.174c0.188,0.042,0.398,0.086,0.589,0.077c0.106-0.014,0.212-0.029,0.318-0.043
					c-0.066,0.012-0.134,0.024-0.2,0.036c-0.001,0.023,0.362-0.035,0.396-0.043c0.555-0.129,0.897-0.771,0.742-1.307
					c-0.045-0.155-0.113-0.295-0.211-0.422c-0.041-0.055-0.083-0.108-0.127-0.161c0.039,0.044,0.078,0.089,0.117,0.134
					c-0.041-0.058-0.084-0.115-0.129-0.17c-0.055-0.092-0.128-0.166-0.221-0.221c-0.077-0.06-0.153-0.122-0.233-0.178
					c-0.257-0.178-0.594-0.282-0.897-0.36c-0.577-0.149-1.183-0.225-1.778-0.228c-0.591-0.003-1.175,0.059-1.76,0.14
					c-0.516,0.071-1.09,0.247-1.509,0.558c-0.323,0.241-0.522,0.55-0.466,0.973C267.021,186.014,267.297,186.413,267.673,186.476
					L267.673,186.476z"/>
			</g>
		</g>
		<g>
			<g>
				<path fill="#223A7A" d="M256.638,183.708c-0.131-0.078-0.266-0.146-0.404-0.209c-0.117-0.053-0.438-0.221-0.195-0.089
					c-0.089-0.048-0.177-0.097-0.267-0.142c-0.4-0.202-0.816-0.337-1.249-0.448c-0.944-0.241-1.938-0.302-2.906-0.2
					c-1.033,0.109-1.976,0.359-2.871,0.898c-0.126,0.076-0.256,0.151-0.361,0.256c-0.071,0.09-0.141,0.181-0.209,0.272
					c0.02-0.03,0.039-0.06,0.059-0.09c-0.276,0.193-0.436,0.51-0.434,0.843c0.002,0.321,0.169,0.59,0.448,0.745
					c0.337,0.188,0.658,0.098,1.005,0.008c-0.174,0-0.349,0-0.523,0c0.287,0.045,0.489,0.056,0.779-0.008
					c0.01-0.002,0.279-0.069,0.102-0.031c-0.167,0.035,0.281-0.035,0.33-0.042c0.057-0.008,0.369-0.039,0.04-0.007
					c0.061-0.006,0.121-0.014,0.182-0.021c0.156-0.019,0.312-0.039,0.469-0.051c0.683-0.055,1.363-0.084,2.048-0.107
					c0.635-0.021,1.281-0.026,1.916,0.001c0.272,0.012,0.543,0.021,0.815,0.029c0.152,0.004,0.088,0.028-0.018-0.005
					c0.057,0.018,0.114,0.028,0.171,0.044c0.113,0.031,0.224,0.068,0.333,0.11c0.441,0.168,0.971-0.15,1.134-0.557
					C257.208,184.466,257.058,183.958,256.638,183.708L256.638,183.708z"/>
			</g>
		</g>
		<g>
			<path fill="#223A7A" d="M261.55,212.469c0.949-1.908,2.677-3.308,4.674-4.208c-1.733-0.176-9.918-0.934-11.983,0.239
				c-2.313,1.313,0.428,6.588,5.212,6.853c0.503,0.028,0.96-0.013,1.396-0.081C260.887,214.309,261.109,213.356,261.55,212.469z"/>
		</g>
		<g>
			<path fill="#DEE1EB" d="M223.739,201.366c0,0,0.828,3.207,5.586,6.931c4.759,3.724,11.655,6.448,11.655,6.448l0.552-2.414
				c0,0-7.138-3.104-10.448-6.517c-3.311-3.414-3.724-5.276-3.724-5.276L223.739,201.366z"/>
		</g>
		<g>
			<path fill="#223A7A" d="M242.36,210.545c3.83-0.178,5.967,2.85,6.234,4.809c0.267,1.959-1.573,4.156-5.877,2.227
				C237.369,215.184,238.531,210.724,242.36,210.545z"/>
		</g>
		<g>
			<path fill="#DEE1EB" d="M226.739,177.676c0,0,1.653-11.89,9.621-19.966c15.207-15.414,28.138-14.483,28.138-14.483
				s-0.104-2.172-4.965-3.827c-4.565-1.554-6.621-0.724-6.621-0.724s-12.518,1.034-23.069,12.724
				c-10.552,11.689-11.69,26.586-11.69,26.586L226.739,177.676z"/>
		</g>
		<g>
			<g>
				<path fill="#FFFFFF" d="M225.601,176.228c-9.962-1.688-15.517,6.104-15.931,13.966c-0.414,7.862,5.299,13.839,12.931,13.241
					C239.773,202.09,237.808,178.297,225.601,176.228z"/>
			</g>
			<g>
				<path fill="#818FB3" d="M220.641,195.794c-2.629,0-4.853-1.322-6.123-3.649c-1.361-2.493-1.247-5.562,0.291-7.818
					c0.117-0.17,0.35-0.214,0.521-0.099c0.171,0.117,0.215,0.35,0.099,0.521c-1.381,2.026-1.48,4.788-0.252,7.036
					c1.165,2.134,3.22,3.342,5.656,3.255c2.276-0.061,4.205-1.102,5.432-2.932c1.4-2.088,1.722-4.973,0.82-7.347
					c-0.895-2.355-3.349-3.962-5.581-3.67c-0.201,0.027-0.394-0.117-0.421-0.322c-0.027-0.205,0.117-0.394,0.322-0.421
					c2.61-0.348,5.351,1.436,6.38,4.146c0.985,2.595,0.633,5.748-0.898,8.031c-1.366,2.038-3.509,3.197-6.035,3.265
					C220.781,195.793,220.711,195.793,220.641,195.794z"/>
			</g>
		</g>
		<g>
			<path fill="#223A7A" d="M213.394,228.262c0,0-30.207,7.448-40.758,19.448s-15.517,71.173-15.724,82.138
				c-0.207,10.966,7.448,15.518,12,18.621s24.621,8.689,40.759,9.518c16.138,0.827,31.448,0,31.448,0s-0.052-3.518,2.431-8.69
				c2.303-4.797,5.224-5.793,5.224-5.793l-13.862-4.966c0,0-2.427-43.493-6.207-64.551
				C224.36,249.779,213.394,228.262,213.394,228.262z"/>
		</g>
		<g>
			<path fill="#8593B6" d="M263.463,331.589c-0.068,0-0.137-0.014-0.202-0.043c-0.253-0.112-0.367-0.407-0.255-0.659
				c2.83-6.386,5.763-18.922,7.414-27.717l0.136-0.711c0.5-2.587,1.122-5.805-0.119-8.025c-0.633-1.133-2.063-3.591-3.438-5.954
				c-1.427-2.453-2.774-4.771-3.148-5.462c-0.729-1.351,1.565-4.959,4.887-9.908c0.896-1.338,1.672-2.492,2.124-3.274
				c1.184-2.048,0.396-3.924-0.517-6.097l-0.311-0.748c-0.827-2.03-1.768-4.064-2.676-6.031c-0.371-0.804-0.743-1.608-1.109-2.417
				c-0.485-1.069-0.973-2.157-1.467-3.258c-2.924-6.517-5.947-13.257-9.818-19.767c-0.142-0.237-0.063-0.544,0.174-0.685
				c0.237-0.141,0.544-0.063,0.686,0.174c3.9,6.56,6.936,13.325,9.871,19.869c0.493,1.1,0.98,2.186,1.465,3.255
				c0.366,0.806,0.736,1.608,1.106,2.41c0.914,1.977,1.858,4.021,2.694,6.073l0.307,0.738c0.931,2.215,1.893,4.506,0.46,6.983
				c-0.469,0.812-1.252,1.979-2.159,3.331c-1.731,2.581-5.335,7.953-4.837,8.876c0.366,0.678,1.71,2.988,3.133,5.435
				c1.378,2.369,2.812,4.833,3.446,5.969c1.42,2.54,0.759,5.957,0.229,8.703l-0.136,0.705c-0.602,3.203-3.788,19.603-7.482,27.938
				C263.837,331.479,263.655,331.589,263.463,331.589z"/>
		</g>
		<g>
			<path fill="#8593B6" d="M233.98,333.348c-0.128,0-0.257-0.049-0.355-0.147c-2.351-2.369-13.688-22.001-14.532-25.692
				c-0.462-2.021,0.698-7.147,1.819-12.105c0.869-3.841,1.768-7.813,1.513-8.888c-0.382-1.607-3.281-3.976-6.085-6.266
				c-3.387-2.767-6.889-5.628-7.567-8.205c-0.771-2.93-0.112-21.266,0.324-33.399c0.157-4.363,0.28-7.809,0.28-9.038
				c0-0.276,0.224-0.5,0.5-0.5c0,0,0,0,0,0c0.276,0,0.5,0.224,0.5,0.5c0,1.248-0.124,4.702-0.281,9.075
				c-0.407,11.341-1.089,30.321-0.356,33.109c0.596,2.262,4.122,5.143,7.233,7.685c3.067,2.506,5.964,4.873,6.425,6.81
				c0.309,1.3-0.534,5.025-1.51,9.339c-1.046,4.623-2.231,9.861-1.82,11.662c0.828,3.619,11.958,22.884,14.268,25.21
				c0.194,0.196,0.193,0.513-0.003,0.707C234.235,333.299,234.108,333.348,233.98,333.348z"/>
		</g>
		<g>
			<path fill="#8593B6" d="M193.326,324.762c-0.023,0-0.047-0.002-0.07-0.005c-0.273-0.039-0.464-0.292-0.425-0.565
				c0.367-2.601,6.106-54.4,6.37-58.368c0.019-0.276,0.256-0.492,0.532-0.466c0.275,0.019,0.484,0.257,0.466,0.532
				c-0.264,3.974-6.01,55.838-6.378,58.442C193.785,324.582,193.571,324.762,193.326,324.762z"/>
		</g>
		<g>
			<path fill="#8593B6" d="M234.498,338.831c-0.063,0-0.126-0.012-0.188-0.036c-1.271-0.516-6.891-2.411-14.004-4.81
				c-14.358-4.843-34.023-11.474-37.762-13.417c-0.245-0.127-0.34-0.429-0.213-0.674c0.127-0.246,0.428-0.344,0.674-0.213
				c3.671,1.907,24.102,8.797,37.621,13.355c7.13,2.405,12.762,4.304,14.061,4.83c0.256,0.104,0.379,0.396,0.275,0.651
				C234.882,338.712,234.695,338.831,234.498,338.831z"/>
		</g>
		<g>
			<path fill="#8593B6" d="M227.593,359.457c-12.637,0-37.135-2.278-55.745-8.86c-0.261-0.093-0.397-0.378-0.305-0.639
				c0.091-0.26,0.38-0.396,0.638-0.305c23.51,8.316,56.398,9.736,62.517,8.362c0.27-0.058,0.537,0.11,0.597,0.379
				c0.061,0.27-0.109,0.537-0.378,0.598C233.593,359.289,231.032,359.457,227.593,359.457z"/>
		</g>
	</g>
	<g>
		<g>
			<g>
				<path fill="#6BAEFF" d="M82.959,235.239c3.923,3.451,8.892,5.663,12.334,9.652c1.354,1.57,2.571,3.241,3.829,4.887
					c0.915,1.198,3.358,3.186,3.754,4.691c0.175,0.663,0.138-0.235-0.038-0.9c-0.007-0.028-0.022-0.055-0.03-0.083
					c-0.343-3.049-0.59-6.11-0.697-9.177c-0.106-3.059,0.084-6.13-0.108-9.185c-0.271-4.308-1.615-8.48-5.137-11.18
					c-1.722-1.319-3.934-2.123-5.517-3.587c-1.502-1.39-0.899-2.982-0.016-4.532c0.826-1.45,1.828-2.876,2.15-4.546
					c0.366-1.898-0.347-3.855-1.31-5.472c-2.048-3.439-6.593-7.275-10.896-6.761c-3.589,0.429-3.996,4.569-3.944,7.453
					c0.05,2.804,0.327,5.599,0.354,8.405c0.028,2.882-0.462,5.71-0.503,8.579C77.117,228.365,79.372,232.084,82.959,235.239z"/>
				<path fill="#6BAEFF" d="M119.409,280.021c1.092-2.604,2.345-5.04,3.886-7.409c2.114-3.25,4.458-6.417,5.878-10.057
					c1.45-3.716,1.237-7.69,1.38-11.604c0.104-2.876,0.959-5.743,0.729-8.627c-0.11-1.383-0.907-3.62-2.696-3.391
					c-1.392,0.178-2.219,1.904-2.754,3.005c-0.934,1.921-1.582,3.972-2.274,5.988c-0.271,0.789-0.529,1.592-0.871,2.353
					c-0.199,0.443-0.833,1.523-1.43,1.375c-1.016-0.251-0.094-4.401,0.058-5.137c0.759-3.691,1.902-7.123,2.061-10.922
					c0.23-5.508-0.198-12.065-5.585-15.077c-1.409-0.787-3.192-1.256-4.53-0.078c-1.32,1.162-1.693,3.175-1.889,4.832
					c-0.602,5.087,0.596,9.904,2.226,14.69c1.346,3.952,2.95,8.03,3.067,12.256c0.113,4.067-2.003,7.673-2.997,11.516
					c-1.583,6.124-1.255,9.371-1.263,11.354c-0.01,2.484,0.08,4.942,0.262,7.42c0.167,2.277,0.365,4.555,0.643,6.821
					c0.057,0.459,0.108,0.938,0.17,1.417c-0.875-2.107-1.181-4.521-1.906-6.638c-1.288-3.764-2.783-7.449-4.019-11.231
					c-1.021-3.125-1.986-6.271-3.334-9.275c-1.264-2.818-2.792-5.798-5.15-7.866c-1.426-1.25-3.154-1.98-5.061-1.966
					c-1.22,0.009-2.316,0.432-3.48,0.739c-1.434,0.379-2.562,0.248-3.741-0.658c-3.861-2.968-5.035-8.289-7.894-12.047
					c-2.132-2.803-7.19-7.581-10.91-4.524c-1.973,1.621-2.517,4.755-2.414,7.156c0.13,3.013,1.447,5.77,3.015,8.289
					c1.668,2.679,3.821,5.078,5.354,7.833c0.906,1.627,1.047,3.187,0.903,5.022c-0.135,1.729-0.286,3.403,0.303,5.071
					c1.77,5.01,7.297,4.311,11.595,4.441c3.008,0.091,6.235,0.539,9.09,1.501c3.3,1.111,5.447,3.259,6.627,6.523
					c0.854,2.362,1.31,5.045,2.918,7.052c0.756,0.943,1.757,1.641,2.857,2.128c1.677,0.74,6.787,1.063,6.825,0.597
					c0.127-1.563,0.868-3.212,1.332-4.694C117.259,285.42,118.282,282.708,119.409,280.021z"/>
				<path fill="#6BAEFF" d="M143.14,279.078c-0.444-2.864-0.359-6.021-1.715-8.65c-0.097-0.188-0.354-0.236-0.528-0.139
					c-0.972,0.539-1.012,2.108-1.092,3.071c-0.131,1.596-0.034,3.195-0.23,4.787c-0.345,2.796-0.991,5.678-1.998,8.313
					c-1.139,2.981-3.212,4.672-6.222,5.603c-1.935,0.598-3.831,1.118-5.445,2.401c-1.445,1.149-2.45,2.734-3.194,4.404
					c-2.009,4.507-2.967,9.545-3.898,14.359c-0.627,3.242-1.139,6.499-1.926,9.709c-0.787,3.207-1.631,6.398-2.083,9.675
					c-0.076,0.165-0.157,0.329-0.227,0.496c-0.207,0.49,0.56,0.755,0.824,0.348c3.107-4.783,6.893-9.076,12.056-11.71
					c2.333-1.189,5.43-1.437,7.375-3.306c1.479-1.422,1.683-3.592,1.462-5.525c-0.291-2.541-1.508-4.633-2.776-6.798
					c-0.697-1.189-1.52-2.464-1.239-3.909c0.265-1.364,1.399-2.366,2.524-3.065c2.146-1.333,4.657-1.933,6.415-3.854
					c1.633-1.784,2.538-4.005,2.719-6.408C144.182,285.676,143.63,282.241,143.14,279.078z"/>
				<path fill="#6BAEFF" d="M100.774,295.59c-2.742-3.532-6.051-6.578-9.774-9.051c-1.987-1.319-6.674-3.923-7.62-0.03
					c-0.554,2.281,1.678,4.525,3.147,5.955c2.208,2.148,4.762,4.003,6.625,6.479c-2.307,0.735-4.717,0.879-6.721,2.474
					c-2.373,1.889-3.437,5.535-1.084,7.848c1.146,1.127,2.667,1.819,4.095,2.511c1.856,0.898,3.746,1.713,5.648,2.508
					c4.108,1.716,8.268,3.456,11.771,6.268c3.571,2.864,6.927,7.707,7.21,12.38c0.027,0.446-0.142,0.04,0.124-0.164
					c0.146,0.131,0.635-0.104,0.632-0.364c-0.073-6.935-1.319-13.537-4.152-19.889C108.047,306.625,104.734,300.692,100.774,295.59z
					"/>
			</g>
			<g>
				<path fill="#43588E" d="M91.304,231.037c1.513,3.139,3.094,6.206,4.773,9.268c1.616,2.947,3.231,5.872,4.44,9.016
					c1.488,3.871,3.049,7.685,4.624,11.521c1.636,3.988,3.099,8.052,4.271,12.2c2.29,8.099,3.991,16.435,4.832,24.811
					c0.428,4.26,0.622,8.545,0.505,12.824c-0.092,3.345-0.469,6.653-0.783,9.98c-0.327,3.462-0.563,6.965-0.273,10.438
					c0.242,2.904,0.704,6.356,2.958,8.428c0.441,0.406,1.065-0.101,0.81-0.624c-2.678-5.492-2.528-11.479-2.016-17.436
					c0.283-3.287,0.675-6.558,0.786-9.857c0.141-4.199-0.024-8.406-0.419-12.588c-0.777-8.221-2.416-16.344-4.542-24.315
					c-1.091-4.088-2.439-8.096-3.994-12.031c-1.558-3.943-3.357-7.778-4.867-11.742c-2.73-7.167-6.893-13.521-10.578-20.201
					C91.638,230.382,91.135,230.687,91.304,231.037L91.304,231.037z"/>
			</g>
			<g>
				<path fill="#43588E" d="M114.367,289.641c0.433-5.219,0.896-10.245,2.655-15.224c0.82-2.322,1.814-4.58,2.606-6.911
					c0.654-1.927,1.633-4.569,1.13-6.617c-0.057-0.229-0.39-0.217-0.452,0c-0.337,1.17-0.3,2.452-0.542,3.652
					c-0.236,1.167-0.552,2.314-0.915,3.448c-0.772,2.412-1.781,4.724-2.655,7.098c-1.689,4.586-2.556,9.666-2.187,14.554
					C114.025,289.874,114.348,289.873,114.367,289.641L114.367,289.641z"/>
			</g>
			<g>
				<path fill="#43588E" d="M84.123,259.647c2.072,5.005,8.299,5.294,12.835,6.415c3.239,0.8,5.63,2.961,7.348,5.767
					c1.879,3.068,3.151,6.672,4.196,10.097c0.012,0.039,0.069,0.023,0.06-0.016c-1.269-5.999-3.086-13.223-9.27-16.014
					c-4.956-2.236-11.485-1.113-14.655-6.466C84.481,259.167,83.998,259.344,84.123,259.647L84.123,259.647z"/>
			</g>
			<g>
				<path fill="#43588E" d="M111.092,288.849c0.246,0.333,0.472,0.681,0.727,1.007c0.126,0.162,0.254,0.314,0.413,0.444
					c0.163,0.133,0.354,0.298,0.577,0.294c0.093-0.002,0.158-0.105,0.108-0.188c-0.103-0.167-0.288-0.267-0.432-0.395
					c-0.148-0.131-0.3-0.26-0.444-0.396c-0.29-0.273-0.555-0.571-0.838-0.852C111.148,288.71,111.043,288.784,111.092,288.849
					L111.092,288.849z"/>
			</g>
			<g>
				<path fill="#43588E" d="M98.138,304.726c3.573,2.934,6.87,6.404,9.489,10.207c1.252,1.818,2.408,3.742,3.456,5.685
					c1.145,2.121,1.896,4.363,2.793,6.589c0.068,0.169,0.376,0.173,0.353-0.048c-0.496-4.706-3.478-8.741-5.865-12.657
					c-1.24-2.034-2.782-3.674-4.44-5.37c-1.712-1.752-3.457-3.409-5.464-4.822C98.215,304.137,97.904,304.535,98.138,304.726
					L98.138,304.726z"/>
			</g>
			<g>
				<path fill="#43588E" d="M126.593,299.185c-1.722,0.976-1.777,3.694-1.811,5.43c-0.065,3.335,0.761,6.468-0.703,9.646
					c-1.322,2.871-3.434,5.268-5.095,7.934c-1.555,2.495-3.088,5.686-3.054,8.689c0.002,0.174,0.269,0.271,0.35,0.095
					c0.626-1.364,0.851-2.913,1.299-4.342c0.504-1.607,1.208-3.066,2.12-4.479c1.598-2.477,3.56-4.729,4.856-7.393
					c1.366-2.807,1.166-5.587,1.076-8.628c-0.058-1.939-0.252-5.056,1.312-6.497C127.188,299.414,126.875,299.025,126.593,299.185
					L126.593,299.185z"/>
			</g>
		</g>
		<path fill="#FFFFFF" d="M115.084,331.193c-6.933-0.096-20.139-0.172-20.139-0.172l3.268,24.262
			c0.735,5.458,5.394,9.531,10.901,9.531h5.694h0.55h5.694c5.508,0,10.167-4.073,10.902-9.531l3.268-24.262
			C135.223,331.021,122.017,331.097,115.084,331.193z"/>
	</g>
	<g>
		<g>
			<g>
				<polygon fill="#F6F7FA" points="450.188,286.607 410.635,364.952 295.326,365.78 330.912,285.503 				"/>
			</g>
			<g>
				<path fill="#D9DEE8" d="M218.795,365.292l0.022-6.271h74.646l34.345-75.311h119.379l3.001,2.896H333.567l-35.689,78.621
					C297.877,365.228,218.795,365.084,218.795,365.292z"/>
			</g>
			<g>
				<path fill="#D9DEE8" d="M390.31,329.839c-1.303,3.908-8.373,6.926-15.792,6.74s-12.377-3.504-11.075-7.412
					c1.303-3.907,8.373-6.925,15.792-6.739S391.613,325.932,390.31,329.839z"/>
			</g>
		</g>
		<g>
			<path fill="#FFFFFF" d="M297.877,365.728c-0.069,0-0.14-0.015-0.207-0.045c-0.251-0.114-0.362-0.41-0.248-0.662l35.822-78.914
				h116.943c0.276,0,0.5,0.224,0.5,0.5s-0.224,0.5-0.5,0.5H333.889l-35.557,78.328C298.25,365.619,298.067,365.728,297.877,365.728z
				"/>
		</g>
	</g>
	<g>
		<g>
			<rect x="76.429" y="371.228" fill="#596B9B" width="137.172" height="30.413"/>
			<rect x="212.817" y="371.228" fill="#7A89AF" width="246.8" height="30.413"/>
		</g>
		<polygon fill="#BDC4D7" points="213.601,371.228 212.817,371.228 76.429,371.228 76.429,376.814 212.817,376.814 213.601,376.814 
			459.617,376.814 459.617,371.228 		"/>
		<rect x="69.808" y="365.228" fill="#6F7FA9" width="149.793" height="7.448"/>
		<rect x="218.817" y="365.228" fill="#9CA6C3" width="246.799" height="7.448"/>
	</g>
	<g>
		<path fill="#FFFFFF" d="M178.969,205.657h-48.424c-2.997,0-5.426-2.43-5.426-5.426v-24.174c0-2.997,2.43-5.426,5.426-5.426h48.424
			c2.997,0,5.426,2.43,5.426,5.426v24.174C184.395,203.228,181.965,205.657,178.969,205.657z"/>
		<polygon fill="#FFFFFF" points="198.195,188.144 180.008,180.47 180.008,195.818 		"/>
		<g>
			<circle fill="#223A7A" cx="143.269" cy="188.144" r="3.35"/>
			<circle fill="#223A7A" cx="154.757" cy="188.144" r="3.35"/>
			<circle fill="#223A7A" cx="166.245" cy="188.144" r="3.35"/>
		</g>
	</g>
	<g>
		<path fill="#60A8FF" d="M425.498,96.262H313.705c-7.18,0-13,5.82-13,13v53.035c0,7.18,5.82,13,13,13h10.021
			c0.281,4.808-0.407,11.959-4.422,21.104c12.916-5.958,20.354-14.904,24.238-21.104h81.956c7.18,0,13-5.82,13-13v-53.035
			C438.498,102.083,432.677,96.262,425.498,96.262z"/>
		<path fill="#FFFFFF" d="M377.808,121.538H322.36c-1.523,0-2.759-1.235-2.759-2.758l0,0c0-1.524,1.235-2.759,2.759-2.759h55.448
			c1.523,0,2.759,1.235,2.759,2.759l0,0C380.567,120.303,379.332,121.538,377.808,121.538z"/>
		<path fill="#D2E6FF" d="M417.567,137.607h-96.276c-0.933,0-1.689-0.756-1.689-1.689l0,0c0-0.933,0.757-1.69,1.689-1.69h96.276
			c0.933,0,1.689,0.757,1.689,1.69l0,0C419.256,136.851,418.5,137.607,417.567,137.607z"/>
		<path fill="#D2E6FF" d="M417.567,146.987h-96.276c-0.933,0-1.689-0.756-1.689-1.69l0,0c0-0.933,0.757-1.689,1.689-1.689h96.276
			c0.933,0,1.689,0.756,1.689,1.689l0,0C419.256,146.23,418.5,146.987,417.567,146.987z"/>
		<path fill="#D2E6FF" d="M396.565,156.987h-75.274c-0.933,0-1.689-0.757-1.689-1.69l0,0c0-0.933,0.757-1.689,1.689-1.689h75.274
			c0.934,0,1.69,0.756,1.69,1.689l0,0C398.255,156.23,397.499,156.987,396.565,156.987z"/>
		<path fill="#FFFFFF" d="M416.811,121.538H390.36c-1.523,0-2.759-1.235-2.759-2.758l0,0c0-1.524,1.235-2.759,2.759-2.759h26.451
			c1.523,0,2.758,1.235,2.758,2.759l0,0C419.569,120.303,418.334,121.538,416.811,121.538z"/>
	</g>
	<g>
		<path fill="#FFFFFF" d="M350.144,243.504H320.11c-1.104,0-2-0.896-2-2v-20.517c0-1.105,0.896-2,2-2h30.034c1.104,0,2,0.895,2,2
			v20.517C352.144,242.608,351.249,243.504,350.144,243.504z"/>
		<g>
			<g>
				<path fill="#6F7FA9" d="M335.334,234.909c-0.169,0-0.339-0.057-0.478-0.172l-16.346-13.5c-0.319-0.264-0.364-0.736-0.101-1.056
					c0.266-0.32,0.738-0.363,1.056-0.101l15.855,13.095l15.451-13.445c0.312-0.271,0.786-0.239,1.058,0.074
					c0.272,0.313,0.239,0.786-0.073,1.058l-15.931,13.862C335.686,234.847,335.51,234.909,335.334,234.909z"/>
			</g>
			<g>
				<path fill="#6F7FA9" d="M318.989,242.944c-0.186,0-0.372-0.068-0.517-0.207c-0.301-0.286-0.313-0.76-0.026-1.061l11.432-12.018
					c0.283-0.3,0.761-0.313,1.06-0.026c0.301,0.286,0.313,0.76,0.026,1.061l-11.432,12.019
					C319.385,242.866,319.187,242.944,318.989,242.944z"/>
			</g>
			<g>
				<path fill="#6F7FA9" d="M351.265,242.504c-0.192,0-0.385-0.073-0.531-0.22l-11.386-11.417c-0.292-0.293-0.292-0.769,0.002-1.061
					c0.294-0.293,0.769-0.292,1.061,0.001l11.386,11.417c0.292,0.293,0.292,0.769-0.002,1.061
					C351.648,242.432,351.457,242.504,351.265,242.504z"/>
			</g>
		</g>
		<g>
			<g>
				<circle fill="#FF5F42" cx="353.705" cy="218.228" r="10.034"/>
			</g>
			<text transform="matrix(1 0 0 1 346.6519 222.4624)" fill="#FFFFFF" font-family="'Quicksand-Bold'" font-size="12">85</text>
		</g>
	</g>
	<g>
		<g>
			<path fill="#223A7A" d="M454.488,214.535h-58.621c-2.209,0-4-1.791-4-4v-9.172c0-2.209,1.791-4,4-4h58.621c2.209,0,4,1.791,4,4
				v9.172C458.488,212.744,456.697,214.535,454.488,214.535z"/>
		</g>
		<g>
			<path fill="#FFFFFF" d="M400.099,210.451c-0.263,0-0.475-0.093-0.634-0.281c-0.16-0.187-0.23-0.422-0.211-0.703l0.253-2.224
				c0.019-0.056,0.01-0.093-0.027-0.113c-0.039-0.019-0.085-0.009-0.142,0.028l-1.829,1.323c-0.226,0.169-0.46,0.23-0.704,0.183
				c-0.243-0.046-0.44-0.192-0.591-0.436c-0.169-0.3-0.201-0.563-0.099-0.789c0.104-0.225,0.277-0.384,0.521-0.478l2.055-0.929
				c0.057-0.019,0.085-0.047,0.085-0.084c0-0.037-0.028-0.065-0.085-0.084l-2.055-0.929c-0.263-0.113-0.432-0.291-0.506-0.535
				c-0.075-0.244-0.047-0.488,0.084-0.732c0.15-0.244,0.348-0.389,0.591-0.437c0.244-0.046,0.479,0.005,0.704,0.155l1.829,1.351
				c0.057,0.038,0.103,0.047,0.142,0.028c0.037-0.019,0.046-0.056,0.027-0.113l-0.253-2.223c-0.02-0.281,0.056-0.516,0.226-0.704
				c0.169-0.188,0.394-0.281,0.675-0.281c0.263,0,0.479,0.094,0.647,0.281s0.234,0.422,0.196,0.704l-0.253,2.223
				c-0.019,0.057-0.01,0.094,0.028,0.113c0.037,0.019,0.085,0.01,0.142-0.028l1.829-1.323c0.225-0.169,0.464-0.229,0.718-0.183
				c0.253,0.047,0.444,0.193,0.577,0.437c0.168,0.3,0.201,0.563,0.097,0.789c-0.103,0.225-0.276,0.384-0.521,0.478l-2.054,0.929
				c-0.056,0.019-0.084,0.047-0.084,0.084c0,0.038,0.028,0.066,0.084,0.084l2.054,0.929c0.264,0.112,0.438,0.291,0.521,0.535
				c0.085,0.244,0.053,0.488-0.097,0.732c-0.133,0.244-0.324,0.39-0.577,0.436c-0.254,0.047-0.493-0.005-0.718-0.155l-1.829-1.351
				c-0.057-0.037-0.104-0.047-0.142-0.028c-0.038,0.02-0.047,0.057-0.028,0.113l0.253,2.224c0.038,0.281-0.032,0.516-0.21,0.703
				C400.609,210.358,400.379,210.451,400.099,210.451z"/>
		</g>
		<g>
			<path fill="#FFFFFF" d="M412.223,210.451c-0.263,0-0.474-0.093-0.633-0.281c-0.16-0.187-0.23-0.422-0.212-0.703l0.254-2.224
				c0.019-0.056,0.009-0.093-0.028-0.113c-0.038-0.019-0.084-0.009-0.141,0.028l-1.829,1.323c-0.226,0.169-0.46,0.23-0.704,0.183
				c-0.243-0.046-0.44-0.192-0.591-0.436c-0.169-0.3-0.201-0.563-0.099-0.789c0.103-0.225,0.276-0.384,0.521-0.478l2.055-0.929
				c0.057-0.019,0.085-0.047,0.085-0.084c0-0.037-0.028-0.065-0.085-0.084l-2.055-0.929c-0.263-0.113-0.432-0.291-0.507-0.535
				c-0.074-0.244-0.046-0.488,0.085-0.732c0.15-0.244,0.348-0.389,0.591-0.437c0.244-0.046,0.479,0.005,0.704,0.155l1.829,1.351
				c0.057,0.038,0.103,0.047,0.141,0.028c0.037-0.019,0.047-0.056,0.028-0.113l-0.254-2.223c-0.019-0.281,0.057-0.516,0.226-0.704
				s0.394-0.281,0.676-0.281c0.263,0,0.479,0.094,0.647,0.281s0.234,0.422,0.196,0.704l-0.253,2.223
				c-0.019,0.057-0.01,0.094,0.028,0.113c0.037,0.019,0.085,0.01,0.141-0.028l1.829-1.323c0.225-0.169,0.465-0.229,0.718-0.183
				c0.253,0.047,0.445,0.193,0.577,0.437c0.168,0.3,0.201,0.563,0.098,0.789c-0.103,0.225-0.276,0.384-0.521,0.478l-2.054,0.929
				c-0.057,0.019-0.085,0.047-0.085,0.084c0,0.038,0.028,0.066,0.085,0.084l2.054,0.929c0.263,0.112,0.438,0.291,0.521,0.535
				c0.085,0.244,0.053,0.488-0.098,0.732c-0.132,0.244-0.324,0.39-0.577,0.436c-0.253,0.047-0.493-0.005-0.718-0.155l-1.829-1.351
				c-0.056-0.037-0.104-0.047-0.141-0.028c-0.038,0.02-0.047,0.057-0.028,0.113l0.253,2.224c0.038,0.281-0.032,0.516-0.211,0.703
				C412.734,210.358,412.504,210.451,412.223,210.451z"/>
		</g>
		<g>
			<path fill="#FFFFFF" d="M424.348,210.451c-0.263,0-0.475-0.093-0.634-0.281c-0.16-0.187-0.23-0.422-0.211-0.703l0.254-2.224
				c0.018-0.056,0.009-0.093-0.028-0.113c-0.038-0.019-0.085-0.009-0.141,0.028l-1.83,1.323c-0.226,0.169-0.46,0.23-0.703,0.183
				c-0.244-0.046-0.441-0.192-0.591-0.436c-0.17-0.3-0.202-0.563-0.099-0.789c0.103-0.225,0.276-0.384,0.521-0.478l2.055-0.929
				c0.056-0.019,0.084-0.047,0.084-0.084c0-0.037-0.028-0.065-0.084-0.084l-2.055-0.929c-0.263-0.113-0.433-0.291-0.507-0.535
				c-0.074-0.244-0.046-0.488,0.085-0.732c0.149-0.244,0.347-0.389,0.591-0.437c0.243-0.046,0.478,0.005,0.703,0.155l1.83,1.351
				c0.056,0.038,0.103,0.047,0.141,0.028c0.037-0.019,0.046-0.056,0.028-0.113l-0.254-2.223c-0.02-0.281,0.057-0.516,0.226-0.704
				s0.394-0.281,0.676-0.281c0.263,0,0.478,0.094,0.646,0.281c0.17,0.188,0.235,0.422,0.196,0.704l-0.252,2.223
				c-0.02,0.057-0.011,0.094,0.028,0.113c0.037,0.019,0.084,0.01,0.141-0.028l1.829-1.323c0.225-0.169,0.464-0.229,0.718-0.183
				c0.253,0.047,0.445,0.193,0.577,0.437c0.168,0.3,0.201,0.563,0.098,0.789c-0.103,0.225-0.277,0.384-0.521,0.478l-2.054,0.929
				c-0.057,0.019-0.085,0.047-0.085,0.084c0,0.038,0.028,0.066,0.085,0.084l2.054,0.929c0.263,0.112,0.437,0.291,0.521,0.535
				c0.084,0.244,0.052,0.488-0.098,0.732c-0.132,0.244-0.324,0.39-0.577,0.436c-0.254,0.047-0.493-0.005-0.718-0.155l-1.829-1.351
				c-0.057-0.037-0.104-0.047-0.141-0.028c-0.039,0.02-0.048,0.057-0.028,0.113l0.252,2.224c0.039,0.281-0.032,0.516-0.21,0.703
				C424.858,210.358,424.628,210.451,424.348,210.451z"/>
		</g>
		<g>
			<path fill="#FFFFFF" d="M436.473,210.451c-0.264,0-0.475-0.093-0.634-0.281c-0.16-0.187-0.23-0.422-0.211-0.703l0.253-2.224
				c0.019-0.056,0.01-0.093-0.028-0.113c-0.038-0.019-0.084-0.009-0.141,0.028l-1.829,1.323c-0.226,0.169-0.46,0.23-0.704,0.183
				c-0.243-0.046-0.44-0.192-0.591-0.436c-0.169-0.3-0.201-0.563-0.099-0.789c0.103-0.225,0.277-0.384,0.521-0.478l2.055-0.929
				c0.057-0.019,0.085-0.047,0.085-0.084c0-0.037-0.028-0.065-0.085-0.084l-2.055-0.929c-0.263-0.113-0.432-0.291-0.506-0.535
				c-0.075-0.244-0.047-0.488,0.084-0.732c0.15-0.244,0.348-0.389,0.591-0.437c0.244-0.046,0.479,0.005,0.704,0.155l1.829,1.351
				c0.057,0.038,0.103,0.047,0.141,0.028c0.038-0.019,0.047-0.056,0.028-0.113l-0.253-2.223c-0.02-0.281,0.056-0.516,0.225-0.704
				c0.17-0.188,0.395-0.281,0.676-0.281c0.263,0,0.479,0.094,0.647,0.281s0.234,0.422,0.196,0.704l-0.253,2.223
				c-0.019,0.057-0.01,0.094,0.028,0.113c0.037,0.019,0.085,0.01,0.142-0.028l1.829-1.323c0.225-0.169,0.464-0.229,0.718-0.183
				c0.253,0.047,0.444,0.193,0.576,0.437c0.169,0.3,0.202,0.563,0.098,0.789c-0.103,0.225-0.276,0.384-0.521,0.478l-2.054,0.929
				c-0.056,0.019-0.084,0.047-0.084,0.084c0,0.038,0.028,0.066,0.084,0.084l2.054,0.929c0.264,0.112,0.438,0.291,0.521,0.535
				c0.085,0.244,0.053,0.488-0.098,0.732c-0.132,0.244-0.323,0.39-0.576,0.436c-0.254,0.047-0.493-0.005-0.718-0.155l-1.829-1.351
				c-0.057-0.037-0.104-0.047-0.142-0.028c-0.038,0.02-0.047,0.057-0.028,0.113l0.253,2.224c0.038,0.281-0.032,0.516-0.21,0.703
				C436.983,210.358,436.753,210.451,436.473,210.451z"/>
		</g>
		<g>
			<path fill="#67ACFF" d="M448.597,210.451c-0.263,0-0.474-0.093-0.633-0.281c-0.16-0.187-0.23-0.422-0.212-0.703l0.254-2.224
				c0.019-0.056,0.009-0.093-0.028-0.113c-0.038-0.019-0.085-0.009-0.141,0.028l-1.829,1.323c-0.226,0.169-0.46,0.23-0.704,0.183
				c-0.243-0.046-0.44-0.192-0.591-0.436c-0.169-0.3-0.201-0.563-0.099-0.789c0.103-0.225,0.276-0.384,0.521-0.478l2.055-0.929
				c0.057-0.019,0.085-0.047,0.085-0.084c0-0.037-0.028-0.065-0.085-0.084l-2.055-0.929c-0.263-0.113-0.432-0.291-0.507-0.535
				c-0.074-0.244-0.046-0.488,0.085-0.732c0.15-0.244,0.348-0.389,0.591-0.437c0.244-0.046,0.479,0.005,0.704,0.155l1.829,1.351
				c0.056,0.038,0.103,0.047,0.141,0.028c0.037-0.019,0.047-0.056,0.028-0.113l-0.254-2.223c-0.019-0.281,0.057-0.516,0.226-0.704
				s0.394-0.281,0.676-0.281c0.263,0,0.479,0.094,0.647,0.281s0.234,0.422,0.196,0.704l-0.253,2.223
				c-0.02,0.057-0.01,0.094,0.028,0.113c0.037,0.019,0.084,0.01,0.141-0.028l1.829-1.323c0.225-0.169,0.465-0.229,0.718-0.183
				c0.253,0.047,0.445,0.193,0.577,0.437c0.168,0.3,0.201,0.563,0.098,0.789c-0.103,0.225-0.276,0.384-0.521,0.478l-2.054,0.929
				c-0.057,0.019-0.084,0.047-0.084,0.084c0,0.038,0.027,0.066,0.084,0.084l2.054,0.929c0.263,0.112,0.437,0.291,0.521,0.535
				c0.085,0.244,0.053,0.488-0.098,0.732c-0.132,0.244-0.324,0.39-0.577,0.436c-0.253,0.047-0.493-0.005-0.718-0.155l-1.829-1.351
				c-0.057-0.037-0.104-0.047-0.141-0.028c-0.038,0.02-0.048,0.057-0.028,0.113l0.253,2.224c0.038,0.281-0.032,0.516-0.211,0.703
				C449.108,210.358,448.878,210.451,448.597,210.451z"/>
		</g>
	</g>
</g>
</svg>
